<?xml version="1.0" encoding="utf-8"?>
<!-- Generator: Adobe Illustrator 16.0.4, SVG Export Plug-In . SVG Version: 6.00 Build 0)  -->
<!DOCTYPE svg PUBLIC "-//W3C//DTD SVG 1.1//EN" "http://www.w3.org/Graphics/SVG/1.1/DTD/svg11.dtd">
<svg version="1.1" id="Layer_1" xmlns="http://www.w3.org/2000/svg" xmlns:xlink="http://www.w3.org/1999/xlink" x="0px" y="0px"
	 width="32.897px" height="32.899px" viewBox="0 -0.002 32.897 32.899" enable-background="new 0 -0.002 32.897 32.899"
	 xml:space="preserve">
<title>search</title>
<desc>Created with Sketch.</desc>
<path fill="#FFFFFF" d="M0.667,4.245l27.92,27.9c0.475,0.501,1.067,0.752,1.779,0.752c0.686,0,1.278-0.25,1.779-0.752
	c0.501-0.5,0.751-1.094,0.751-1.778c0-0.698-0.244-1.292-0.731-1.779l0,0L4.245,0.667L4.31,0.752C3.835,0.251,3.242,0,2.53,0
	C1.845,0,1.252,0.25,0.751,0.752C0.25,1.252,0,1.846,0,2.53C0,3.229,0.244,3.822,0.731,4.31l1.083,1.172L0.667,4.245z"/>
<path fill="#FFFFFF" d="M4.246,32.228l27.9-27.92c0.501-0.475,0.752-1.067,0.752-1.779c0-0.686-0.25-1.278-0.752-1.779
	c-0.5-0.501-1.094-0.751-1.778-0.751c-0.698,0-1.292,0.244-1.779,0.731l0,0l-27.92,27.92l0.085-0.064
	c-0.501,0.475-0.752,1.067-0.752,1.779c0,0.686,0.25,1.278,0.752,1.779c0.5,0.501,1.094,0.751,1.778,0.751
	c0.698,0,1.292-0.244,1.779-0.731l1.172-1.084L4.246,32.228z"/>
</svg>
