<?xml version="1.0" encoding="UTF-8"?>
<svg width="17px" height="16px" viewBox="0 0 17 16" version="1.1" xmlns="http://www.w3.org/2000/svg" xmlns:xlink="http://www.w3.org/1999/xlink">
    <title>link</title>
    <defs>
        <polygon id="path-1" points="7.84025 16 0.06 16 0.06 0.375 7.84025 0.375 15.6205 0.375 15.6205 16 7.84025 16"></polygon>
    </defs>
    <g id="Page-1" stroke="none" stroke-width="1" fill="none" fill-rule="evenodd">
        <g id="Article" transform="translate(-976.000000, -5159.000000)">
            <g id="bio-copy" transform="translate(392.755859, 4999.830344)">
                <g id="Group-6" transform="translate(583.839518, 154.000000)">
                    <g id="link" transform="translate(0.000000, 5.000000)">
                        <mask id="mask-2" fill="white">
                            <use xlink:href="#path-1"></use>
                        </mask>
                        <g id="Clip-2"></g>
                        <path d="M6.689,10.121 C6.481,10.121 6.273,10.043 6.115,9.883 C4.628,8.397 4.628,5.979 6.115,4.492 L9.115,1.492 C9.834,0.771 10.793,0.375 11.811,0.375 C12.828,0.375 13.787,0.771 14.506,1.492 C15.992,2.979 15.992,5.396 14.506,6.883 L13.136,8.254 C12.818,8.571 12.304,8.571 11.986,8.254 C11.67,7.937 11.67,7.422 11.986,7.105 L13.357,5.734 C14.211,4.881 14.211,3.494 13.357,2.641 C12.944,2.228 12.394,1.999 11.811,1.999 C11.227,1.999 10.677,2.228 10.264,2.641 L7.264,5.641 C6.411,6.494 6.411,7.881 7.264,8.734 C7.581,9.052 7.581,9.566 7.264,9.883 C7.104,10.043 6.896,10.121 6.688,10.121 L6.689,10.121" id="Fill-1" fill="#4D4D4D" mask="url(#mask-2)"></path>
                        <path d="M3.811,16 C2.792,16 1.834,15.604 1.115,14.883 C-0.372,13.397 -0.372,10.979 1.115,9.492 L2.485,8.121 C2.803,7.804 3.317,7.804 3.635,8.121 C3.952,8.437 3.952,8.953 3.635,9.27 L2.264,10.641 C1.411,11.494 1.411,12.881 2.264,13.734 C2.677,14.147 3.226,14.375 3.811,14.375 C4.396,14.375 4.944,14.147 5.357,13.734 L8.357,10.734 C9.211,9.881 9.211,8.494 8.357,7.641 C8.041,7.323 8.041,6.809 8.357,6.492 C8.675,6.174 9.189,6.174 9.506,6.492 C10.992,7.978 10.992,10.397 9.506,11.883 L6.506,14.883 C5.787,15.604 4.829,16 3.811,16" id="Fill-3" fill="#4D4D4D" mask="url(#mask-2)"></path>
                    </g>
                </g>
            </g>
        </g>
    </g>
</svg>