<?xml version="1.0" encoding="UTF-8"?>
<svg width="132px" height="27px" viewBox="0 0 132 27" version="1.1" xmlns="http://www.w3.org/2000/svg" xmlns:xlink="http://www.w3.org/1999/xlink">
    <!-- Generator: Sketch 41.2 (35397) - http://www.bohemiancoding.com/sketch -->
    <title>logo - SOURCE</title>
    <desc>Created with Sketch.</desc>
    <defs></defs>
    <g id="Symbols" stroke="none" stroke-width="1" fill="none" fill-rule="evenodd">
        <g id="footer" transform="translate(-64.000000, -80.000000)" fill="#FFFFFF">
            <g id="logo---SOURCE" transform="translate(64.000000, 80.000000)">
                <g id="source_vector-1" transform="translate(0.000000, 0.556500)">
                    <path d="M8.26052335,25.914314 C6.0272584,25.914314 4.43696323,25.0685233 3.15102365,23.4102074 L3.15102365,25.2713442 L0.240778533,25.2713442 L0.240778533,18.3684801 L3.5571621,18.3684801 C3.72622095,21.278477 5.48582322,22.6997133 7.88839528,22.6997133 C10.3922537,22.6997133 12.0505696,20.9401111 12.0505696,18.7068461 C12.0505696,15.5257593 9.30963159,15.0183345 5.58735783,14.0034848 C2.40651925,13.1234355 0.0377093093,10.6871013 0.0377093093,7.43873845 C0.0377093093,3.4793851 3.28632038,0.501863988 7.21166337,0.501863988 C9.30963159,0.501863988 10.8321543,1.28013051 11.8475004,2.83666356 L11.8475004,1.11082341 L14.6559626,1.11082341 L14.6559626,7.30319347 L11.4075998,7.30319347 C11.2382927,4.90086966 9.54646294,3.58116796 7.58379144,3.58116796 C5.24899188,3.58116796 3.72622095,5.20522524 3.72622095,7.2696796 C3.72622095,10.957943 7.61755356,10.9239326 10.4600262,11.9052684 C13.9454686,13.1234355 15.738833,15.3567004 15.738833,18.537539 C15.738833,22.7334754 12.4226977,25.914314 8.26052335,25.914314" id="Fill-1"></path>
                    <path d="M60.9806203,4.15624113 L60.9806203,17.5563274 C60.9806203,22.632065 57.5969608,25.880676 52.6227578,25.880676 C47.8513758,25.880676 44.3999438,22.7673617 44.3999438,17.3532581 L44.3999438,4.15624113 L41.523709,4.15624113 L41.523709,1.11069928 L50.5585517,1.11069928 L50.5585517,4.15624113 L48.0206829,4.15624113 L48.0206829,16.9808818 C48.0206829,20.6693935 50.1864236,22.2259265 52.6227578,22.2259265 C55.1266162,22.2259265 57.3601294,20.6356313 57.3601294,16.9808818 L57.3601294,4.15624113 L54.7882503,4.15624113 L54.7882503,1.11069928 L63.7890826,1.11069928 L63.7890826,4.15624113 L60.9806203,4.15624113 Z" id="Fill-3"></path>
                    <path d="M81.013424,25.2713691 L73.3322934,14.4091516 L75.9039243,14.4091516 C79.8967916,14.4091516 81.7916906,12.1418763 81.7916906,9.33366228 C81.7916906,6.89707985 80.4044646,4.35945931 76.6144184,4.35945931 L72.3169473,4.35945931 L72.3169473,22.2258272 L74.6857573,22.2258272 L74.6857573,25.2713691 L65.8539838,25.2713691 L65.8539838,22.2258272 L68.6964564,22.2258272 L68.6964564,4.15614183 L65.8539838,4.15614183 L65.8539838,1.11084823 L76.8850118,1.11084823 C82.7052538,1.11084823 85.479954,4.90064623 85.479954,9.16435517 C85.479954,12.7175701 83.3144615,16.1687539 78.9494662,16.5751406 L83.2806994,22.2258272 L86.2244584,22.2258272 L86.2244584,25.2713691 L81.013424,25.2713691 Z" id="Fill-5"></path>
                    <path d="M100.166327,25.8806264 C93.4325221,25.8806264 87.578518,20.4662746 87.578518,13.1232617 C87.578518,5.94980412 93.3985117,0.501938463 100.098803,0.501938463 C103.448701,0.501938463 105.851024,1.7198573 107.949241,3.78406341 L107.949241,1.11089788 L110.994534,1.11089788 L110.994534,8.01376198 L107.509092,8.01376198 C105.817262,5.40812069 103.110086,4.15619148 100.166327,4.15619148 C95.1921244,4.15619148 91.2667814,8.01376198 91.2667814,13.1232617 C91.2667814,18.2667718 95.2596486,22.2258769 100.166327,22.2258769 C103.211869,22.2258769 105.986321,20.7033542 107.644389,18.131475 L111.56998,18.131475 C109.471763,23.1396884 104.836175,25.8806264 100.166327,25.8806264" id="Fill-7"></path>
                    <polygon id="Fill-9" points="113.702058 25.2713691 113.702058 22.2258272 116.54453 22.2258272 116.54453 4.15614183 113.702058 4.15614183 113.702058 1.11084823 131.196546 1.11084823 131.196546 7.91242596 127.575807 7.91242596 127.575807 4.35945931 120.165021 4.35945931 120.165021 11.6009376 128.252539 11.6009376 128.252539 14.4771724 120.165021 14.4771724 120.165021 22.0230062 127.575807 22.0230062 127.575807 18.4700396 131.196546 18.4700396 131.196546 25.2713691"></polygon>
                    <path d="M41.9614001,12.1553067 C42.5405695,12.1553067 43.0100119,12.6259903 43.0100119,13.2049114 C43.0100119,13.784329 42.5405695,14.2542679 41.9614001,14.2542679 C41.3817343,14.2542679 40.9117954,13.784329 40.9117954,13.2049114 C40.9117954,12.6259903 41.3817343,12.1553067 41.9614001,12.1553067 M17.7221838,14.2542679 C17.142518,14.2542679 16.6723308,13.784329 16.6723308,13.2049114 C16.6723308,12.6259903 17.142518,12.1553067 17.7221838,12.1553067 C18.3013531,12.1553067 18.771292,12.6259903 18.771292,13.2049114 C18.771292,13.784329 18.3013531,14.2542679 17.7221838,14.2542679 M20.1461054,21.4843266 C19.5669361,21.4843266 19.0965007,21.014636 19.0965007,20.4352184 C19.0965007,19.8555526 19.5669361,19.3856137 20.1461054,19.3856137 C20.725523,19.3856137 21.1952137,19.8555526 21.1952137,20.4352184 C21.1952137,21.014636 20.725523,21.4843266 20.1461054,21.4843266 M20.1461054,16.664784 C19.5669361,16.664784 19.0965007,16.1945968 19.0965007,15.6151792 C19.0965007,15.0357617 19.5669361,14.5658227 20.1461054,14.5658227 C20.725523,14.5658227 21.1952137,15.0357617 21.1952137,15.6151792 C21.1952137,16.1945968 20.725523,16.664784 20.1461054,16.664784 M20.1461054,11.844 C19.5669361,11.844 19.0965007,11.3743094 19.0965007,10.7948918 C19.0965007,10.2154742 19.5669361,9.74578357 20.1461054,9.74578357 C20.725523,9.74578357 21.1952137,10.2154742 21.1952137,10.7948918 C21.1952137,11.3743094 20.725523,11.844 20.1461054,11.844 M20.1461054,7.02470563 C19.5669361,7.02470563 19.0965007,6.55451845 19.0965007,5.97534914 C19.0965007,5.39593157 19.5669361,4.9262409 20.1461054,4.9262409 C20.725523,4.9262409 21.1952137,5.39593157 21.1952137,5.97534914 C21.1952137,6.55451845 20.725523,7.02470563 20.1461054,7.02470563 M22.5702753,23.8936015 C21.990113,23.8936015 21.5209188,23.4241591 21.5209188,22.8449897 C21.5209188,22.2648274 21.990113,21.7956333 22.5702753,21.7956333 C23.1491964,21.7956333 23.6191353,22.2648274 23.6191353,22.8449897 C23.6191353,23.4241591 23.1491964,23.8936015 22.5702753,23.8936015 M22.5702753,19.0743071 C21.990113,19.0743071 21.5209188,18.6048646 21.5209188,18.0251988 C21.5209188,17.4460295 21.990113,16.9755941 22.5702753,16.9755941 C23.1491964,16.9755941 23.6191353,17.4460295 23.6191353,18.0251988 C23.6191353,18.6048646 23.1491964,19.0743071 22.5702753,19.0743071 M22.5702753,14.2542679 C21.990113,14.2542679 21.5209188,13.784329 21.5209188,13.2049114 C21.5209188,12.6259903 21.990113,12.1553067 22.5702753,12.1553067 C23.1491964,12.1553067 23.6191353,12.6259903 23.6191353,13.2049114 C23.6191353,13.784329 23.1491964,14.2542679 22.5702753,14.2542679 M22.5702753,9.43447696 C21.990113,9.43447696 21.5209188,8.96453804 21.5209188,8.38512047 C21.5209188,7.80595116 21.990113,7.33650874 22.5702753,7.33650874 C23.1491964,7.33650874 23.6191353,7.80595116 23.6191353,8.38512047 C23.6191353,8.96453804 23.1491964,9.43447696 22.5702753,9.43447696 M22.5702753,4.61493429 C21.990113,4.61493429 21.5209188,4.14499537 21.5209188,3.56532955 C21.5209188,2.98566374 21.990113,2.51597306 22.5702753,2.51597306 C23.1491964,2.51597306 23.6191353,2.98566374 23.6191353,3.56532955 C23.6191353,4.14499537 23.1491964,4.61493429 22.5702753,4.61493429 M24.9939487,21.4843266 C24.4140346,21.4843266 23.9448405,21.014636 23.9448405,20.4352184 C23.9448405,19.8555526 24.4140346,19.3856137 24.9939487,19.3856137 C25.573118,19.3856137 26.0423122,19.8555526 26.0423122,20.4352184 C26.0423122,21.014636 25.573118,21.4843266 24.9939487,21.4843266 M24.9939487,16.664784 C24.4140346,16.664784 23.9448405,16.1945968 23.9448405,15.6151792 C23.9448405,15.0357617 24.4140346,14.5658227 24.9939487,14.5658227 C25.573118,14.5658227 26.0423122,15.0357617 26.0423122,15.6151792 C26.0423122,16.1945968 25.573118,16.664784 24.9939487,16.664784 M24.9939487,11.844 C24.4140346,11.844 23.9448405,11.3743094 23.9448405,10.7948918 C23.9448405,10.2154742 24.4140346,9.74578357 24.9939487,9.74578357 C25.573118,9.74578357 26.0423122,10.2154742 26.0423122,10.7948918 C26.0423122,11.3743094 25.573118,11.844 24.9939487,11.844 M24.9939487,7.02470563 C24.4140346,7.02470563 23.9448405,6.55451845 23.9448405,5.97534914 C23.9448405,5.39593157 24.4140346,4.9262409 24.9939487,4.9262409 C25.573118,4.9262409 26.0423122,5.39593157 26.0423122,5.97534914 C26.0423122,6.55451845 25.573118,7.02470563 24.9939487,7.02470563 M27.4178703,23.8936015 C26.8379563,23.8936015 26.3685138,23.4241591 26.3685138,22.8449897 C26.3685138,22.2648274 26.8379563,21.7956333 27.4178703,21.7956333 C27.9972879,21.7956333 28.4664821,22.2648274 28.4664821,22.8449897 C28.4664821,23.4241591 27.9972879,23.8936015 27.4178703,23.8936015 M27.4178703,19.0743071 C26.8379563,19.0743071 26.3685138,18.6048646 26.3685138,18.0251988 C26.3685138,17.4460295 26.8379563,16.9755941 27.4178703,16.9755941 C27.9972879,16.9755941 28.4664821,17.4460295 28.4664821,18.0251988 C28.4664821,18.6048646 27.9972879,19.0743071 27.4178703,19.0743071 M27.4178703,14.2542679 C26.8379563,14.2542679 26.3685138,13.784329 26.3685138,13.2049114 C26.3685138,12.6259903 26.8379563,12.1553067 27.4178703,12.1553067 C27.9972879,12.1553067 28.4664821,12.6259903 28.4664821,13.2049114 C28.4664821,13.784329 27.9972879,14.2542679 27.4178703,14.2542679 M27.4178703,9.43447696 C26.8379563,9.43447696 26.3685138,8.96453804 26.3685138,8.38512047 C26.3685138,7.80595116 26.8379563,7.33650874 27.4178703,7.33650874 C27.9972879,7.33650874 28.4664821,7.80595116 28.4664821,8.38512047 C28.4664821,8.96453804 27.9972879,9.43447696 27.4178703,9.43447696 M27.4178703,4.61493429 C26.8379563,4.61493429 26.3685138,4.14499537 26.3685138,3.56532955 C26.3685138,2.98566374 26.8379563,2.51597306 27.4178703,2.51597306 C27.9972879,2.51597306 28.4664821,2.98566374 28.4664821,3.56532955 C28.4664821,4.14499537 27.9972879,4.61493429 27.4178703,4.61493429 M29.841792,26.3038693 C29.2618779,26.3038693 28.7926837,25.8341786 28.7926837,25.2547611 C28.7926837,24.6755918 29.2618779,24.2059011 29.841792,24.2059011 C30.4212095,24.2059011 30.8909002,24.6755918 30.8909002,25.2547611 C30.8909002,25.8341786 30.4212095,26.3038693 29.841792,26.3038693 M29.841792,21.4843266 C29.2618779,21.4843266 28.7926837,21.014636 28.7926837,20.4352184 C28.7926837,19.8555526 29.2618779,19.3856137 29.841792,19.3856137 C30.4212095,19.3856137 30.8909002,19.8555526 30.8909002,20.4352184 C30.8909002,21.014636 30.4212095,21.4843266 29.841792,21.4843266 M29.841792,16.664784 C29.2618779,16.664784 28.7926837,16.1945968 28.7926837,15.6151792 C28.7926837,15.0357617 29.2618779,14.5658227 29.841792,14.5658227 C30.4212095,14.5658227 30.8909002,15.0357617 30.8909002,15.6151792 C30.8909002,16.1945968 30.4212095,16.664784 29.841792,16.664784 M29.841792,11.844 C29.2618779,11.844 28.7926837,11.3743094 28.7926837,10.7948918 C28.7926837,10.2154742 29.2618779,9.74578357 29.841792,9.74578357 C30.4212095,9.74578357 30.8909002,10.2154742 30.8909002,10.7948918 C30.8909002,11.3743094 30.4212095,11.844 29.841792,11.844 M29.841792,7.02470563 C29.2618779,7.02470563 28.7926837,6.55451845 28.7926837,5.97534914 C28.7926837,5.39593157 29.2618779,4.9262409 29.841792,4.9262409 C30.4212095,4.9262409 30.8909002,5.39593157 30.8909002,5.97534914 C30.8909002,6.55451845 30.4212095,7.02470563 29.841792,7.02470563 M29.841792,2.20466645 C29.2618779,2.20466645 28.7926837,1.73497578 28.7926837,1.15555822 C28.7926837,0.576388903 29.2618779,0.105953477 29.841792,0.105953477 C30.4212095,0.105953477 30.8909002,0.576388903 30.8909002,1.15555822 C30.8909002,1.73497578 30.4212095,2.20466645 29.841792,2.20466645 M32.2657136,23.8936015 C31.6855513,23.8936015 31.2158606,23.4241591 31.2158606,22.8449897 C31.2158606,22.2648274 31.6855513,21.7956333 32.2657136,21.7956333 C32.8451312,21.7956333 33.3148218,22.2648274 33.3148218,22.8449897 C33.3148218,23.4241591 32.8451312,23.8936015 32.2657136,23.8936015 M32.2657136,19.0743071 C31.6855513,19.0743071 31.2158606,18.6048646 31.2158606,18.0251988 C31.2158606,17.4460295 31.6855513,16.9755941 32.2657136,16.9755941 C32.8451312,16.9755941 33.3148218,17.4460295 33.3148218,18.0251988 C33.3148218,18.6048646 32.8451312,19.0743071 32.2657136,19.0743071 M32.2657136,14.2542679 C31.6855513,14.2542679 31.2158606,13.784329 31.2158606,13.2049114 C31.2158606,12.6259903 31.6855513,12.1553067 32.2657136,12.1553067 C32.8451312,12.1553067 33.3148218,12.6259903 33.3148218,13.2049114 C33.3148218,13.784329 32.8451312,14.2542679 32.2657136,14.2542679 M32.2657136,9.43447696 C31.6855513,9.43447696 31.2158606,8.96453804 31.2158606,8.38512047 C31.2158606,7.80595116 31.6855513,7.33650874 32.2657136,7.33650874 C32.8451312,7.33650874 33.3148218,7.80595116 33.3148218,8.38512047 C33.3148218,8.96453804 32.8451312,9.43447696 32.2657136,9.43447696 M32.2657136,4.61493429 C31.6855513,4.61493429 31.2158606,4.14499537 31.2158606,3.56532955 C31.2158606,2.98566374 31.6855513,2.51597306 32.2657136,2.51597306 C32.8451312,2.51597306 33.3148218,2.98566374 33.3148218,3.56532955 C33.3148218,4.14499537 32.8451312,4.61493429 32.2657136,4.61493429 M34.6896352,21.4843266 C34.1097212,21.4843266 33.6397822,21.014636 33.6397822,20.4352184 C33.6397822,19.8555526 34.1097212,19.3856137 34.6896352,19.3856137 C35.2688046,19.3856137 35.7387435,19.8555526 35.7387435,20.4352184 C35.7387435,21.014636 35.2688046,21.4843266 34.6896352,21.4843266 M34.6896352,16.664784 C34.1097212,16.664784 33.6397822,16.1945968 33.6397822,15.6151792 C33.6397822,15.0357617 34.1097212,14.5658227 34.6896352,14.5658227 C35.2688046,14.5658227 35.7387435,15.0357617 35.7387435,15.6151792 C35.7387435,16.1945968 35.2688046,16.664784 34.6896352,16.664784 M34.6896352,11.844 C34.1097212,11.844 33.6397822,11.3743094 33.6397822,10.7948918 C33.6397822,10.2154742 34.1097212,9.74578357 34.6896352,9.74578357 C35.2688046,9.74578357 35.7387435,10.2154742 35.7387435,10.7948918 C35.7387435,11.3743094 35.2688046,11.844 34.6896352,11.844 M34.6896352,7.02470563 C34.1097212,7.02470563 33.6397822,6.55451845 33.6397822,5.97534914 C33.6397822,5.39593157 34.1097212,4.9262409 34.6896352,4.9262409 C35.2688046,4.9262409 35.7387435,5.39593157 35.7387435,5.97534914 C35.7387435,6.55451845 35.2688046,7.02470563 34.6896352,7.02470563 M37.1135569,23.8936015 C36.5336428,23.8936015 36.0637039,23.4241591 36.0637039,22.8449897 C36.0637039,22.2648274 36.5336428,21.7956333 37.1135569,21.7956333 C37.6927262,21.7956333 38.1624169,22.2648274 38.1624169,22.8449897 C38.1624169,23.4241591 37.6927262,23.8936015 37.1135569,23.8936015 M37.1135569,19.0743071 C36.5336428,19.0743071 36.0637039,18.6048646 36.0637039,18.0251988 C36.0637039,17.4460295 36.5336428,16.9755941 37.1135569,16.9755941 C37.6927262,16.9755941 38.1624169,17.4460295 38.1624169,18.0251988 C38.1624169,18.6048646 37.6927262,19.0743071 37.1135569,19.0743071 M37.1135569,14.2542679 C36.5336428,14.2542679 36.0637039,13.784329 36.0637039,13.2049114 C36.0637039,12.6259903 36.5336428,12.1553067 37.1135569,12.1553067 C37.6927262,12.1553067 38.1624169,12.6259903 38.1624169,13.2049114 C38.1624169,13.784329 37.6927262,14.2542679 37.1135569,14.2542679 M37.1135569,9.43447696 C36.5336428,9.43447696 36.0637039,8.96453804 36.0637039,8.38512047 C36.0637039,7.80595116 36.5336428,7.33650874 37.1135569,7.33650874 C37.6927262,7.33650874 38.1624169,7.80595116 38.1624169,8.38512047 C38.1624169,8.96453804 37.6927262,9.43447696 37.1135569,9.43447696 M37.1135569,4.61493429 C36.5336428,4.61493429 36.0637039,4.14499537 36.0637039,3.56532955 C36.0637039,2.98566374 36.5336428,2.51597306 37.1135569,2.51597306 C37.6927262,2.51597306 38.1624169,2.98566374 38.1624169,3.56532955 C38.1624169,4.14499537 37.6927262,4.61493429 37.1135569,4.61493429 M39.5374785,21.4843266 C38.9575644,21.4843266 38.4878738,21.014636 38.4878738,20.4352184 C38.4878738,19.8555526 38.9575644,19.3856137 39.5374785,19.3856137 C40.1166478,19.3856137 40.5865867,19.8555526 40.5865867,20.4352184 C40.5865867,21.014636 40.1166478,21.4843266 39.5374785,21.4843266 M39.5374785,16.664784 C38.9575644,16.664784 38.4878738,16.1945968 38.4878738,15.6151792 C38.4878738,15.0357617 38.9575644,14.5658227 39.5374785,14.5658227 C40.1166478,14.5658227 40.5865867,15.0357617 40.5865867,15.6151792 C40.5865867,16.1945968 40.1166478,16.664784 39.5374785,16.664784 M39.5374785,11.844 C38.9575644,11.844 38.4878738,11.3743094 38.4878738,10.7948918 C38.4878738,10.2154742 38.9575644,9.74578357 39.5374785,9.74578357 C40.1166478,9.74578357 40.5865867,10.2154742 40.5865867,10.7948918 C40.5865867,11.3743094 40.1166478,11.844 39.5374785,11.844 M39.5374785,7.02470563 C38.9575644,7.02470563 38.4878738,6.55451845 38.4878738,5.97534914 C38.4878738,5.39593157 38.9575644,4.9262409 39.5374785,4.9262409 C40.1166478,4.9262409 40.5865867,5.39593157 40.5865867,5.97534914 C40.5865867,6.55451845 40.1166478,7.02470563 39.5374785,7.02470563" id="Fill-11"></path>
                    <path d="M29.8418416,9.74575875 C29.2619276,9.74575875 28.7927334,10.2156977 28.7927334,10.794867 C28.7927334,11.3742845 29.2619276,11.8439752 29.8418416,11.8439752 C30.4210109,11.8439752 30.8904534,11.3742845 30.8904534,10.794867 C30.8904534,10.2156977 30.4210109,9.74575875 29.8418416,9.74575875" id="Fill-13"></path>
                    <path d="M24.9939239,9.74575875 C24.4140098,9.74575875 23.9448156,10.2156977 23.9448156,10.794867 C23.9448156,11.3742845 24.4140098,11.8439752 24.9939239,11.8439752 C25.5730932,11.8439752 26.0422874,11.3742845 26.0422874,10.794867 C26.0422874,10.2156977 25.5730932,9.74575875 24.9939239,9.74575875" id="Fill-15"></path>
                    <path d="M20.1461302,9.74575875 C19.5662162,9.74575875 19.0962773,10.2156977 19.0962773,10.794867 C19.0962773,11.3742845 19.5662162,11.8439752 20.1461302,11.8439752 C20.7255478,11.8439752 21.1952385,11.3742845 21.1952385,10.794867 C21.1952385,10.2156977 20.7255478,9.74575875 20.1461302,9.74575875" id="Fill-17"></path>
                    <path d="M34.6895359,9.74575875 C34.1096219,9.74575875 33.6396829,10.2156977 33.6396829,10.794867 C33.6396829,11.3742845 34.1096219,11.8439752 34.6895359,11.8439752 C35.2687053,11.8439752 35.7386442,11.3742845 35.7386442,10.794867 C35.7386442,10.2156977 35.2687053,9.74575875 34.6895359,9.74575875" id="Fill-19"></path>
                    <path d="M39.5374537,9.74575875 C38.9575396,9.74575875 38.4878489,10.2156977 38.4878489,10.794867 C38.4878489,11.3742845 38.9575396,11.8439752 39.5374537,11.8439752 C40.116623,11.8439752 40.5865619,11.3742845 40.5865619,10.794867 C40.5865619,10.2156977 40.116623,9.74575875 39.5374537,9.74575875" id="Fill-21"></path>
                    <path d="M29.8418416,4.92619125 C29.2619276,4.92619125 28.7927334,5.39613017 28.7927334,5.97554774 C28.7927334,6.55471705 29.2619276,7.02465598 29.8418416,7.02465598 C30.4210109,7.02465598 30.8904534,6.55471705 30.8904534,5.97554774 C30.8904534,5.39613017 30.4210109,4.92619125 29.8418416,4.92619125" id="Fill-23"></path>
                    <path d="M24.9939239,4.92619125 C24.4140098,4.92619125 23.9448156,5.39613017 23.9448156,5.97554774 C23.9448156,6.55471705 24.4140098,7.02465598 24.9939239,7.02465598 C25.5730932,7.02465598 26.0422874,6.55471705 26.0422874,5.97554774 C26.0422874,5.39613017 25.5730932,4.92619125 24.9939239,4.92619125" id="Fill-25"></path>
                    <path d="M20.1461302,4.92619125 C19.5662162,4.92619125 19.0962773,5.39613017 19.0962773,5.97554774 C19.0962773,6.55471705 19.5662162,7.02465598 20.1461302,7.02465598 C20.7255478,7.02465598 21.1952385,6.55471705 21.1952385,5.97554774 C21.1952385,5.39613017 20.7255478,4.92619125 20.1461302,4.92619125" id="Fill-27"></path>
                    <path d="M34.6895359,4.92619125 C34.1096219,4.92619125 33.6396829,5.39613017 33.6396829,5.97554774 C33.6396829,6.55471705 34.1096219,7.02465598 34.6895359,7.02465598 C35.2687053,7.02465598 35.7386442,6.55471705 35.7386442,5.97554774 C35.7386442,5.39613017 35.2687053,4.92619125 34.6895359,4.92619125" id="Fill-29"></path>
                    <path d="M39.5374537,4.92619125 C38.9575396,4.92619125 38.4878489,5.39613017 38.4878489,5.97554774 C38.4878489,6.55471705 38.9575396,7.02465598 39.5374537,7.02465598 C40.116623,7.02465598 40.5865619,6.55471705 40.5865619,5.97554774 C40.5865619,5.39613017 40.116623,4.92619125 39.5374537,4.92619125" id="Fill-31"></path>
                    <path d="M29.8418416,0.105928652 C29.2619276,0.105928652 28.7927334,0.576364078 28.7927334,1.15578164 C28.7927334,1.73495096 29.2619276,2.20464163 29.8418416,2.20464163 C30.4210109,2.20464163 30.8904534,1.73495096 30.8904534,1.15578164 C30.8904534,0.576364078 30.4210109,0.105928652 29.8418416,0.105928652" id="Fill-33"></path>
                    <path d="M24.9939239,2.20476575 C25.5730932,2.20476575 26.0422874,1.73482683 26.0422874,1.15565752 C26.0422874,0.963759584 25.9876722,0.786260201 25.8973088,0.631103398 C25.232493,0.83938589 24.5927504,1.10029757 23.9783295,1.40639091 C24.0912837,1.86416554 24.5011459,2.20476575 24.9939239,2.20476575" id="Fill-35"></path>
                    <path d="M34.6895359,2.20476575 C35.1818174,2.20476575 35.5916797,1.86416554 35.7046338,1.40713566 C35.0899646,1.10029757 34.4499738,0.83938589 33.7856545,0.631103398 C33.6957876,0.786260201 33.6396829,0.963759584 33.6396829,1.15565752 C33.6396829,1.73482683 34.1096219,2.20476575 34.6895359,2.20476575" id="Fill-37"></path>
                    <path d="M29.8418416,24.2059011 C29.2619276,24.2059011 28.7927334,24.6755918 28.7927334,25.2547611 C28.7927334,25.8341786 29.2619276,26.3038693 29.8418416,26.3038693 C30.4210109,26.3038693 30.8904534,25.8341786 30.8904534,25.2547611 C30.8904534,24.6755918 30.4210109,24.2059011 29.8418416,24.2059011" id="Fill-39"></path>
                    <path d="M24.9939239,24.2059011 C24.5011459,24.2059011 24.0912837,24.5462531 23.9783295,25.0042759 C24.5927504,25.310121 25.232493,25.571281 25.8973088,25.7793152 C25.9876722,25.6246549 26.0422874,25.446659 26.0422874,25.2547611 C26.0422874,24.6755918 25.5730932,24.2059011 24.9939239,24.2059011" id="Fill-41"></path>
                    <path d="M34.6895359,24.2059011 C34.1096219,24.2059011 33.6396829,24.6755918 33.6396829,25.2547611 C33.6396829,25.446659 33.6957876,25.6246549 33.7856545,25.7793152 C34.4499738,25.5707845 35.0899646,25.3096245 35.7046338,25.0035312 C35.5916797,24.5462531 35.1818174,24.2059011 34.6895359,24.2059011" id="Fill-43"></path>
                    <path d="M32.2658129,21.7951367 C31.6866436,21.7951367 31.2159599,22.2655722 31.2159599,22.8449897 C31.2159599,23.4239108 31.6866436,23.8936015 32.2658129,23.8936015 C32.8449822,23.8936015 33.3149211,23.4239108 33.3149211,22.8449897 C33.3149211,22.2655722 32.8449822,21.7951367 32.2658129,21.7951367" id="Fill-45"></path>
                    <path d="M27.4178952,21.7951367 C26.8379811,21.7951367 26.3685387,22.2655722 26.3685387,22.8449897 C26.3685387,23.4239108 26.8379811,23.8936015 27.4178952,23.8936015 C27.9970645,23.8936015 28.4665069,23.4239108 28.4665069,22.8449897 C28.4665069,22.2655722 27.9970645,21.7951367 27.4178952,21.7951367" id="Fill-47"></path>
                    <path d="M22.5702008,21.7951367 C21.990535,21.7951367 21.5203478,22.2655722 21.5203478,22.8449897 C21.5203478,23.4239108 21.990535,23.8936015 22.5702008,23.8936015 C23.1493701,23.8936015 23.6193091,23.4239108 23.6193091,22.8449897 C23.6193091,22.2655722 23.1493701,21.7951367 22.5702008,21.7951367" id="Fill-49"></path>
                    <path d="M37.1134824,21.7951367 C36.5338166,21.7951367 36.0636294,22.2655722 36.0636294,22.8449897 C36.0636294,23.4239108 36.5338166,23.8936015 37.1134824,23.8936015 C37.6926517,23.8936015 38.1625906,23.4239108 38.1625906,22.8449897 C38.1625906,22.2655722 37.6926517,21.7951367 37.1134824,21.7951367" id="Fill-51"></path>
                    <path d="M29.8418416,19.3856137 C29.2619276,19.3856137 28.7927334,19.8560491 28.7927334,20.4352184 C28.7927334,21.014636 29.2619276,21.4843266 29.8418416,21.4843266 C30.4210109,21.4843266 30.8904534,21.014636 30.8904534,20.4352184 C30.8904534,19.8560491 30.4210109,19.3856137 29.8418416,19.3856137" id="Fill-53"></path>
                    <path d="M24.9939239,19.3856137 C24.4140098,19.3856137 23.9448156,19.8560491 23.9448156,20.4352184 C23.9448156,21.014636 24.4140098,21.4843266 24.9939239,21.4843266 C25.5730932,21.4843266 26.0422874,21.014636 26.0422874,20.4352184 C26.0422874,19.8560491 25.5730932,19.3856137 24.9939239,19.3856137" id="Fill-55"></path>
                    <path d="M20.1461302,19.3856137 C19.5662162,19.3856137 19.0962773,19.8560491 19.0962773,20.4352184 C19.0962773,21.014636 19.5662162,21.4843266 20.1461302,21.4843266 C20.7255478,21.4843266 21.1952385,21.014636 21.1952385,20.4352184 C21.1952385,19.8560491 20.7255478,19.3856137 20.1461302,19.3856137" id="Fill-57"></path>
                    <path d="M34.6895359,19.3856137 C34.1096219,19.3856137 33.6396829,19.8560491 33.6396829,20.4352184 C33.6396829,21.014636 34.1096219,21.4843266 34.6895359,21.4843266 C35.2687053,21.4843266 35.7386442,21.014636 35.7386442,20.4352184 C35.7386442,19.8560491 35.2687053,19.3856137 34.6895359,19.3856137" id="Fill-59"></path>
                    <path d="M39.5374537,19.3856137 C38.9575396,19.3856137 38.4878489,19.8560491 38.4878489,20.4352184 C38.4878489,21.014636 38.9575396,21.4843266 39.5374537,21.4843266 C40.116623,21.4843266 40.5865619,21.014636 40.5865619,20.4352184 C40.5865619,19.8560491 40.116623,19.3856137 39.5374537,19.3856137" id="Fill-61"></path>
                    <path d="M32.2658129,16.9755941 C31.6866436,16.9755941 31.2159599,17.4460295 31.2159599,18.0249506 C31.2159599,18.6046164 31.6866436,19.0743071 32.2658129,19.0743071 C32.8449822,19.0743071 33.3149211,18.6046164 33.3149211,18.0249506 C33.3149211,17.4460295 32.8449822,16.9755941 32.2658129,16.9755941" id="Fill-63"></path>
                    <path d="M27.4178952,16.9755941 C26.8379811,16.9755941 26.3685387,17.4460295 26.3685387,18.0249506 C26.3685387,18.6046164 26.8379811,19.0743071 27.4178952,19.0743071 C27.9970645,19.0743071 28.4665069,18.6046164 28.4665069,18.0249506 C28.4665069,17.4460295 27.9970645,16.9755941 27.4178952,16.9755941" id="Fill-65"></path>
                    <path d="M22.5702008,16.9755941 C21.990535,16.9755941 21.5203478,17.4460295 21.5203478,18.0249506 C21.5203478,18.6046164 21.990535,19.0743071 22.5702008,19.0743071 C23.1493701,19.0743071 23.6193091,18.6046164 23.6193091,18.0249506 C23.6193091,17.4460295 23.1493701,16.9755941 22.5702008,16.9755941" id="Fill-67"></path>
                    <path d="M37.1134824,16.9755941 C36.5338166,16.9755941 36.0636294,17.4460295 36.0636294,18.0249506 C36.0636294,18.6046164 36.5338166,19.0743071 37.1134824,19.0743071 C37.6926517,19.0743071 38.1625906,18.6046164 38.1625906,18.0249506 C38.1625906,17.4460295 37.6926517,16.9755941 37.1134824,16.9755941" id="Fill-69"></path>
                    <path d="M40.9117954,18.0250747 C40.9117954,18.4994821 41.2293083,18.896187 41.6615131,19.0255258 C41.9678547,18.4066363 42.2270286,17.7616805 42.4333251,17.0923961 C42.2905808,17.0201551 42.1319485,16.9757182 41.9614001,16.9757182 C41.3817343,16.9757182 40.9117954,17.4459054 40.9117954,18.0250747" id="Fill-71"></path>
                    <path d="M32.2658129,12.1553067 C31.6866436,12.1553067 31.2159599,12.6259903 31.2159599,13.2049114 C31.2159599,13.784329 31.6866436,14.2542679 32.2658129,14.2542679 C32.8449822,14.2542679 33.3149211,13.784329 33.3149211,13.2049114 C33.3149211,12.6259903 32.8449822,12.1553067 32.2658129,12.1553067" id="Fill-73"></path>
                    <path d="M27.4178952,12.1553067 C26.8379811,12.1553067 26.3685387,12.6259903 26.3685387,13.2049114 C26.3685387,13.784329 26.8379811,14.2542679 27.4178952,14.2542679 C27.9970645,14.2542679 28.4665069,13.784329 28.4665069,13.2049114 C28.4665069,12.6259903 27.9970645,12.1553067 27.4178952,12.1553067" id="Fill-75"></path>
                    <path d="M22.5702008,12.1553067 C21.990535,12.1553067 21.5203478,12.6259903 21.5203478,13.2049114 C21.5203478,13.784329 21.990535,14.2542679 22.5702008,14.2542679 C23.1493701,14.2542679 23.6193091,13.784329 23.6193091,13.2049114 C23.6193091,12.6259903 23.1493701,12.1553067 22.5702008,12.1553067" id="Fill-77"></path>
                    <path d="M18.7711679,18.0250747 C18.7711679,17.4459054 18.3014772,16.9757182 17.7223079,16.9757182 C17.5515113,16.9757182 17.3923825,17.0201551 17.24939,17.0928926 C17.4559347,17.7616805 17.7158534,18.4073811 18.0207055,19.0255258 C18.4539033,18.8966835 18.7711679,18.4994821 18.7711679,18.0250747" id="Fill-79"></path>
                    <path d="M17.7222831,12.1553067 C17.142369,12.1553067 16.6724301,12.6259903 16.6724301,13.2049114 C16.6724301,13.784329 17.142369,14.2542679 17.7222831,14.2542679 C18.3014524,14.2542679 18.7711431,13.784329 18.7711431,13.2049114 C18.7711431,12.6259903 18.3014524,12.1553067 17.7222831,12.1553067" id="Fill-81"></path>
                    <path d="M18.7711679,8.38521977 C18.7711679,7.91056408 18.4543998,7.51385917 18.0207055,7.38402396 C17.7158534,8.00316166 17.4559347,8.64836571 17.24939,9.3176501 C17.3923825,9.3898911 17.5515113,9.43457626 17.7223079,9.43457626 C18.3014772,9.43457626 18.7711679,8.96463734 18.7711679,8.38521977" id="Fill-83"></path>
                    <path d="M37.1134824,12.1553067 C36.5338166,12.1553067 36.0636294,12.6259903 36.0636294,13.2049114 C36.0636294,13.784329 36.5338166,14.2542679 37.1134824,14.2542679 C37.6926517,14.2542679 38.1625906,13.784329 38.1625906,13.2049114 C38.1625906,12.6259903 37.6926517,12.1553067 37.1134824,12.1553067" id="Fill-85"></path>
                    <path d="M41.9614001,14.2545161 C42.5405695,14.2545161 43.0100119,13.7840807 43.0100119,13.2046631 C43.0100119,12.6257421 42.5405695,12.1558032 41.9614001,12.1558032 C41.3817343,12.1558032 40.9117954,12.6257421 40.9117954,13.2046631 C40.9117954,13.7840807 41.3817343,14.2545161 41.9614001,14.2545161" id="Fill-87"></path>
                    <path d="M32.2658129,2.51607236 C31.6866436,2.51607236 31.2159599,2.98576304 31.2159599,3.56542885 C31.2159599,4.14509467 31.6866436,4.61478534 32.2658129,4.61478534 C32.8449822,4.61478534 33.3149211,4.14509467 33.3149211,3.56542885 C33.3149211,2.98576304 32.8449822,2.51607236 32.2658129,2.51607236" id="Fill-89"></path>
                    <path d="M27.4178952,2.51607236 C26.8379811,2.51607236 26.3685387,2.98576304 26.3685387,3.56542885 C26.3685387,4.14509467 26.8379811,4.61478534 27.4178952,4.61478534 C27.9970645,4.61478534 28.4665069,4.14509467 28.4665069,3.56542885 C28.4665069,2.98576304 27.9970645,2.51607236 27.4178952,2.51607236" id="Fill-91"></path>
                    <path d="M22.5702008,2.51607236 C21.990535,2.51607236 21.5203478,2.98576304 21.5203478,3.56542885 C21.5203478,4.14509467 21.990535,4.61478534 22.5702008,4.61478534 C23.1493701,4.61478534 23.6193091,4.14509467 23.6193091,3.56542885 C23.6193091,2.98576304 23.1493701,2.51607236 22.5702008,2.51607236" id="Fill-93"></path>
                    <path d="M37.1134824,2.51607236 C36.5338166,2.51607236 36.0636294,2.98576304 36.0636294,3.56542885 C36.0636294,4.14509467 36.5338166,4.61478534 37.1134824,4.61478534 C37.6926517,4.61478534 38.1625906,4.14509467 38.1625906,3.56542885 C38.1625906,2.98576304 37.6926517,2.51607236 37.1134824,2.51607236" id="Fill-95"></path>
                    <path d="M29.8418416,14.5657979 C29.2619276,14.5657979 28.7927334,15.0357368 28.7927334,15.6151544 C28.7927334,16.194572 29.2619276,16.6647591 29.8418416,16.6647591 C30.4210109,16.6647591 30.8904534,16.194572 30.8904534,15.6151544 C30.8904534,15.0357368 30.4210109,14.5657979 29.8418416,14.5657979" id="Fill-97"></path>
                    <path d="M24.9939239,14.5657979 C24.4140098,14.5657979 23.9448156,15.0357368 23.9448156,15.6151544 C23.9448156,16.194572 24.4140098,16.6647591 24.9939239,16.6647591 C25.5730932,16.6647591 26.0422874,16.194572 26.0422874,15.6151544 C26.0422874,15.0357368 25.5730932,14.5657979 24.9939239,14.5657979" id="Fill-99"></path>
                    <path d="M20.1461302,14.5657979 C19.5662162,14.5657979 19.0962773,15.0357368 19.0962773,15.6151544 C19.0962773,16.194572 19.5662162,16.6647591 20.1461302,16.6647591 C20.7255478,16.6647591 21.1952385,16.194572 21.1952385,15.6151544 C21.1952385,15.0357368 20.7255478,14.5657979 20.1461302,14.5657979" id="Fill-101"></path>
                    <path d="M34.6895359,14.5657979 C34.1096219,14.5657979 33.6396829,15.0357368 33.6396829,15.6151544 C33.6396829,16.194572 34.1096219,16.6647591 34.6895359,16.6647591 C35.2687053,16.6647591 35.7386442,16.194572 35.7386442,15.6151544 C35.7386442,15.0357368 35.2687053,14.5657979 34.6895359,14.5657979" id="Fill-103"></path>
                    <path d="M39.5374537,14.5657979 C38.9575396,14.5657979 38.4878489,15.0357368 38.4878489,15.6151544 C38.4878489,16.194572 38.9575396,16.6647591 39.5374537,16.6647591 C40.116623,16.6647591 40.5865619,16.194572 40.5865619,15.6151544 C40.5865619,15.0357368 40.116623,14.5657979 39.5374537,14.5657979" id="Fill-105"></path>
                    <path d="M32.2658129,7.33645909 C31.6866436,7.33645909 31.2159599,7.80614976 31.2159599,8.38531907 C31.2159599,8.96473664 31.6866436,9.43442731 32.2658129,9.43442731 C32.8449822,9.43442731 33.3149211,8.96473664 33.3149211,8.38531907 C33.3149211,7.80614976 32.8449822,7.33645909 32.2658129,7.33645909" id="Fill-107"></path>
                    <path d="M27.4178952,7.33645909 C26.8379811,7.33645909 26.3685387,7.80614976 26.3685387,8.38531907 C26.3685387,8.96473664 26.8379811,9.43442731 27.4178952,9.43442731 C27.9970645,9.43442731 28.4665069,8.96473664 28.4665069,8.38531907 C28.4665069,7.80614976 27.9970645,7.33645909 27.4178952,7.33645909" id="Fill-109"></path>
                    <path d="M22.5702008,7.33645909 C21.990535,7.33645909 21.5203478,7.80614976 21.5203478,8.38531907 C21.5203478,8.96473664 21.990535,9.43442731 22.5702008,9.43442731 C23.1493701,9.43442731 23.6193091,8.96473664 23.6193091,8.38531907 C23.6193091,7.80614976 23.1493701,7.33645909 22.5702008,7.33645909" id="Fill-111"></path>
                    <path d="M37.1134824,7.33645909 C36.5338166,7.33645909 36.0636294,7.80614976 36.0636294,8.38531907 C36.0636294,8.96473664 36.5338166,9.43442731 37.1134824,9.43442731 C37.6926517,9.43442731 38.1625906,8.96473664 38.1625906,8.38531907 C38.1625906,7.80614976 37.6926517,7.33645909 37.1134824,7.33645909" id="Fill-113"></path>
                    <path d="M40.9117954,8.38521977 C40.9117954,8.96463734 41.3817343,9.43457626 41.9614001,9.43457626 C42.1319485,9.43457626 42.2905808,9.3898911 42.4333251,9.3176501 C42.2270286,8.64886221 41.9678547,8.00316166 41.6615131,7.38402396 C41.2293083,7.51385917 40.9117954,7.91056408 40.9117954,8.38521977" id="Fill-115"></path>
                </g>
            </g>
        </g>
    </g>
</svg>