<?xml version="1.0" encoding="UTF-8"?>
<svg width="218px" height="46px" viewBox="0 0 218 46" version="1.1" xmlns="http://www.w3.org/2000/svg" xmlns:xlink="http://www.w3.org/1999/xlink">
    <!-- Generator: Sketch 41.2 (35397) - http://www.bohemiancoding.com/sketch -->
    <title>logo - open news</title>
    <desc>Created with Sketch.</desc>
    <defs></defs>
    <g id="Symbols" stroke="none" stroke-width="1" fill="none" fill-rule="evenodd">
        <g id="footer" transform="translate(-880.000000, -74.000000)" fill="#FFFFFF">
            <g id="logo---open-news" transform="translate(880.000000, 74.000000)">
                <g id="open-news-2017">
                    <path d="M62.5550962,27.5492361 C64.0402213,29.095334 66.0705155,29.9740607 68.071092,29.9740607 C72.5274918,29.9740607 75.8917599,26.3974124 75.8917599,21.6989143 C75.8917599,19.7285681 75.1644406,17.8801677 73.7702625,16.3650686 C72.1631917,14.6368206 70.3747394,13.7880679 68.071092,13.7880679 C66.0405415,13.7880679 64.1611422,14.5758477 62.7372463,16.0307425 C61.2211224,17.5768405 60.3413709,19.6985941 60.3413709,21.7601433 C60.3413709,24.0335606 61.1598933,26.0940851 62.5550962,27.5492361 M60.4935469,13.7880679 C62.5550962,11.7577737 65.1008419,10.665898 68.071092,10.665898 C71.1023149,10.665898 73.7092896,11.7265187 75.830787,13.8182982 C78.0135135,15.9707944 79.1353632,18.6676913 79.1353632,21.7299131 C79.1353632,24.8213404 78.1654333,27.3980848 76.2860341,29.4286353 C74.0735898,31.8234859 71.314439,33.0662566 68.071092,33.0662566 C64.8587437,33.0662566 62.099593,31.8234859 59.9171227,29.3676624 C58.0986963,27.337112 57.1290226,24.7001632 57.1290226,21.7299131 C57.1290226,18.7286642 58.2808464,15.9707944 60.4935469,13.7880679" id="Fill-1"></path>
                    <path d="M91.2892044,30.1562108 C94.3194026,30.1562108 96.8361989,27.6704133 96.8361989,24.458065 C96.8361989,21.244692 94.3194026,18.7286642 91.2892044,18.7286642 C88.0458573,18.7286642 85.7721839,21.1534889 85.7721839,24.458065 C85.7721839,27.7613602 88.0458573,30.1562108 91.2892044,30.1562108 M82.8928807,19.0319914 L80.6194635,19.0319914 L80.6194635,16.2428667 L85.8021579,16.2428667 L85.8021579,18.33439 C87.2573089,16.6983699 89.1064779,15.9098215 91.4403556,15.9098215 C93.7440031,15.9098215 95.7445795,16.758318 97.3816243,18.3646203 C99.0179006,20.0016651 99.8976521,22.1231625 99.8976521,24.458065 C99.8976521,26.7916865 99.0179006,28.9131839 97.3816243,30.550485 C95.7445795,32.1567872 93.7440031,33.0052837 91.4403556,33.0052837 C89.045505,33.0052837 87.2573089,32.2477342 85.8331567,30.6104331 L85.8331567,35.0968071 L88.2879555,35.0968071 L88.2879555,37.9159059 L80.5282604,37.9159059 L80.5282604,35.0968071 L82.8928807,35.0968071 L82.8928807,19.0319914" id="Fill-3"></path>
                    <path d="M115.324814,22.850738 C114.567265,20.2750183 112.505716,18.7286642 110.020943,18.7286642 C107.535145,18.7286642 105.534569,20.2440195 104.686072,22.850738 L115.324814,22.850738 Z M110.020943,33.0662566 C107.716271,33.0662566 105.564799,32.1867613 103.927498,30.550485 C102.291222,28.9131839 101.381496,26.7617125 101.381496,24.458065 C101.381496,22.1544175 102.291222,20.0016651 103.927498,18.3646203 C105.564799,16.728344 107.716271,15.8485925 110.020943,15.8485925 C112.93022,15.8485925 115.567169,17.2437953 117.17424,19.6683638 C118.143913,21.1235148 118.598392,22.6995868 118.598392,24.4270662 C118.598392,24.8213404 118.568162,25.2156146 118.538187,25.6098887 L104.564895,25.6098887 C105.231498,28.4279628 107.444198,30.1562108 110.020943,30.1562108 C111.930316,30.1562108 113.566592,29.2165112 114.749415,27.4280589 L118.113939,27.4280589 C116.720017,30.9747332 113.627565,33.0662566 110.020943,33.0662566 L110.020943,33.0662566 Z" id="Fill-5"></path>
                    <path d="M122.022864,19.0319914 L119.719217,19.0319914 L119.719217,16.2428667 L124.841963,16.2428667 L124.841963,18.6077432 C125.902584,16.8192909 127.509911,15.9707944 129.691356,15.9707944 C131.510807,15.9707944 133.116853,16.6371408 134.208729,17.7279917 C135.815031,19.3353187 136.118102,20.9113907 136.118102,23.3362153 L136.118102,29.8229095 L138.45198,29.8229095 L138.45198,32.6420083 L130.934383,32.6420083 L130.934383,29.8229095 L133.178082,29.8229095 L133.178082,24.1847118 C133.178082,20.4871424 132.298331,18.7898933 129.20716,18.7898933 C126.508982,18.7898933 124.962884,20.6682677 124.962884,24.2459409 L124.962884,29.8229095 L127.206583,29.8229095 L127.206583,32.6420083 L119.659012,32.6420083 L119.659012,29.8229095 L122.022864,29.8229095 L122.022864,19.0319914" id="Fill-7"></path>
                    <polygon id="Fill-9" points="148.666474 29.7619366 148.666474 32.6420083 140.512504 32.6420083 140.512504 29.7619366 143.028276 29.7619366 143.028276 13.9092451 140.512504 13.9092451 140.512504 11.0901463 146.21065 11.0901463 156.72924 27.3071379 156.72924 13.9092451 154.182469 13.9092451 154.182469 11.0901463 162.336439 11.0901463 162.336439 13.9092451 159.820667 13.9092451 159.820667 32.6420083 156.75947 32.6420083 146.119447 15.9098215 146.119447 29.7619366"></polygon>
                    <path d="M175.763281,22.850738 C175.005731,20.2750183 172.944182,18.7286642 170.459409,18.7286642 C167.973612,18.7286642 165.973035,20.2440195 165.124539,22.850738 L175.763281,22.850738 Z M170.459409,33.0662566 C168.154737,33.0662566 166.003265,32.1867613 164.365964,30.550485 C162.729688,28.9131839 161.820219,26.7617125 161.820219,24.458065 C161.820219,22.1544175 162.729688,20.0016651 164.365964,18.3646203 C166.003265,16.728344 168.154737,15.8485925 170.459409,15.8485925 C173.368686,15.8485925 176.00666,17.2437953 177.612706,19.6683638 C178.58238,21.1235148 179.036858,22.6995868 179.036858,24.4270662 C179.036858,24.8213404 179.006628,25.2156146 178.976654,25.6098887 L165.003362,25.6098887 C165.669964,28.4279628 167.882665,30.1562108 170.459409,30.1562108 C172.368782,30.1562108 174.005059,29.2165112 175.187881,27.4280589 L178.552406,27.4280589 C177.158484,30.9747332 174.066032,33.0662566 170.459409,33.0662566 L170.459409,33.0662566 Z" id="Fill-11"></path>
                    <polygon id="Fill-13" points="181.18833 19.0319914 179.248982 19.0319914 179.248982 16.2428667 186.675376 16.2428667 186.675376 19.0319914 184.189579 19.0319914 187.220801 28.1256603 191.190699 16.2428667 192.948921 16.2428667 196.919844 28.1256603 199.951067 19.0319914 197.466294 19.0319914 197.466294 16.2428667 204.891919 16.2428667 204.891919 19.0319914 202.952316 19.0319914 198.223844 32.6420083 195.799019 32.6420083 192.070451 22.0332403 188.341626 32.6420083 185.947801 32.6420083"></polygon>
                    <path d="M209.043967,27.337112 L209.043967,27.3980848 C209.043967,29.1255643 210.225765,30.3073621 211.832836,30.3073621 C213.530085,30.3073621 214.560988,29.4586094 214.560988,28.1256603 C214.560988,26.6705093 213.772439,26.1553142 211.954013,25.6398628 C210.104588,25.0944374 208.801613,24.7913663 208.134242,24.3668619 C206.710089,23.4571363 206.042718,22.2753385 206.042718,20.6382937 C206.042718,17.8801677 208.074037,15.8795913 210.953341,15.8795913 C212.196111,15.8795913 213.256988,16.3040957 214.136483,17.1525922 L214.136483,16.2428667 L216.651486,16.2428667 L216.651486,20.4871424 L213.802413,20.4871424 C213.621288,19.1841674 212.711563,18.3956191 211.317641,18.3956191 C209.892464,18.3956191 208.982738,19.3043199 208.982738,20.3959393 C208.982738,22.1843916 210.650013,22.1843916 213.439138,23.0941171 C216.318185,24.0335606 217.592211,25.3065615 217.592211,27.9435103 C217.592211,30.8837863 215.439458,33.0052837 212.287314,33.0052837 C210.772215,33.0052837 209.620391,32.5810355 208.649693,31.5811315 L208.649693,32.6420083 L205.921541,32.6420083 L205.921541,27.337112 L209.043967,27.337112" id="Fill-15"></path>
                    <path d="M44.1564029,20.9313734 C45.1621991,20.9313734 45.9768787,21.7481025 45.9768787,22.7536426 C45.9768787,23.7594388 45.1621991,24.5751432 44.1564029,24.5751432 C43.149838,24.5751432 42.3341337,23.7594388 42.3341337,22.7536426 C42.3341337,21.7481025 43.149838,20.9313734 44.1564029,20.9313734 M2.07563966,24.5751432 C1.06881864,24.5751432 0.253114291,23.7594388 0.253114291,22.7536426 C0.253114291,21.7481025 1.06881864,20.9313734 2.07563966,20.9313734 C3.08117973,20.9313734 3.89688409,21.7481025 3.89688409,22.7536426 C3.89688409,23.7594388 3.08117973,24.5751432 2.07563966,24.5751432 M6.28353665,37.1273575 C5.27799658,37.1273575 4.46126747,36.3116532 4.46126747,35.3058569 C4.46126747,34.2992921 5.27799658,33.4835877 6.28353665,33.4835877 C7.28933291,33.4835877 8.10503726,34.2992921 8.10503726,35.3058569 C8.10503726,36.3116532 7.28933291,37.1273575 6.28353665,37.1273575 M6.28353665,28.7602394 C5.27799658,28.7602394 4.46126747,27.9435103 4.46126747,26.937714 C4.46126747,25.9321739 5.27799658,25.1164696 6.28353665,25.1164696 C7.28933291,25.1164696 8.10503726,25.9321739 8.10503726,26.937714 C8.10503726,27.9435103 7.28933291,28.7602394 6.28353665,28.7602394 M6.28353665,20.3910717 C5.27799658,20.3910717 4.46126747,19.5753674 4.46126747,18.5695711 C4.46126747,17.564031 5.27799658,16.7483267 6.28353665,16.7483267 C7.28933291,16.7483267 8.10503726,17.564031 8.10503726,18.5695711 C8.10503726,19.5753674 7.28933291,20.3910717 6.28353665,20.3910717 M6.28353665,12.0239536 C5.27799658,12.0239536 4.46126747,11.2082492 4.46126747,10.2024529 C4.46126747,9.19665669 5.27799658,8.38120852 6.28353665,8.38120852 C7.28933291,8.38120852 8.10503726,9.19665669 8.10503726,10.2024529 C8.10503726,11.2082492 7.28933291,12.0239536 6.28353665,12.0239536 M10.4916898,41.3104042 C9.48486881,41.3104042 8.6704454,40.4946999 8.6704454,39.4891598 C8.6704454,38.4823388 9.48486881,37.6676592 10.4916898,37.6676592 C11.4974861,37.6676592 12.3129343,38.4823388 12.3129343,39.4891598 C12.3129343,40.4946999 11.4974861,41.3104042 10.4916898,41.3104042 M10.4916898,32.9432861 C9.48486881,32.9432861 8.6704454,32.1275817 8.6704454,31.1217855 C8.6704454,30.1162454 9.48486881,29.2995163 10.4916898,29.2995163 C11.4974861,29.2995163 12.3129343,30.1162454 12.3129343,31.1217855 C12.3129343,32.1275817 11.4974861,32.9432861 10.4916898,32.9432861 M10.4916898,24.5751432 C9.48486881,24.5751432 8.6704454,23.7594388 8.6704454,22.7536426 C8.6704454,21.7481025 9.48486881,20.9313734 10.4916898,20.9313734 C11.4974861,20.9313734 12.3129343,21.7481025 12.3129343,22.7536426 C12.3129343,23.7594388 11.4974861,24.5751432 10.4916898,24.5751432 M10.4916898,16.208025 C9.48486881,16.208025 8.6704454,15.3923207 8.6704454,14.3865244 C8.6704454,13.3807281 9.48486881,12.56528 10.4916898,12.56528 C11.4974861,12.56528 12.3129343,13.3807281 12.3129343,14.3865244 C12.3129343,15.3923207 11.4974861,16.208025 10.4916898,16.208025 M10.4916898,7.84065068 C9.48486881,7.84065068 8.6704454,7.02520251 8.6704454,6.0183815 C8.6704454,5.01258524 9.48486881,4.19713707 10.4916898,4.19713707 C11.4974861,4.19713707 12.3129343,5.01258524 12.3129343,6.0183815 C12.3129343,7.02520251 11.4974861,7.84065068 10.4916898,7.84065068 M14.699843,37.1273575 C13.693022,37.1273575 12.8785986,36.3116532 12.8785986,35.3058569 C12.8785986,34.2992921 13.693022,33.4835877 14.699843,33.4835877 C15.7056393,33.4835877 16.5200627,34.2992921 16.5200627,35.3058569 C16.5200627,36.3116532 15.7056393,37.1273575 14.699843,37.1273575 M14.699843,28.7602394 C13.693022,28.7602394 12.8785986,27.9435103 12.8785986,26.937714 C12.8785986,25.9321739 13.693022,25.1164696 14.699843,25.1164696 C15.7056393,25.1164696 16.5200627,25.9321739 16.5200627,26.937714 C16.5200627,27.9435103 15.7056393,28.7602394 14.699843,28.7602394 M14.699843,20.3910717 C13.693022,20.3910717 12.8785986,19.5753674 12.8785986,18.5695711 C12.8785986,17.564031 13.693022,16.7483267 14.699843,16.7483267 C15.7056393,16.7483267 16.5200627,17.564031 16.5200627,18.5695711 C16.5200627,19.5753674 15.7056393,20.3910717 14.699843,20.3910717 M14.699843,12.0239536 C13.693022,12.0239536 12.8785986,11.2082492 12.8785986,10.2024529 C12.8785986,9.19665669 13.693022,8.38120852 14.699843,8.38120852 C15.7056393,8.38120852 16.5200627,9.19665669 16.5200627,10.2024529 C16.5200627,11.2082492 15.7056393,12.0239536 14.699843,12.0239536 M18.9079962,41.3104042 C17.9011752,41.3104042 17.0864956,40.4946999 17.0864956,39.4891598 C17.0864956,38.4823388 17.9011752,37.6676592 18.9079962,37.6676592 C19.9135363,37.6676592 20.7282159,38.4823388 20.7282159,39.4891598 C20.7282159,40.4946999 19.9135363,41.3104042 18.9079962,41.3104042 M18.9079962,32.9432861 C17.9011752,32.9432861 17.0864956,32.1275817 17.0864956,31.1217855 C17.0864956,30.1162454 17.9011752,29.2995163 18.9079962,29.2995163 C19.9135363,29.2995163 20.7282159,30.1162454 20.7282159,31.1217855 C20.7282159,32.1275817 19.9135363,32.9432861 18.9079962,32.9432861 M18.9079962,24.5751432 C17.9011752,24.5751432 17.0864956,23.7594388 17.0864956,22.7536426 C17.0864956,21.7481025 17.9011752,20.9313734 18.9079962,20.9313734 C19.9135363,20.9313734 20.7282159,21.7481025 20.7282159,22.7536426 C20.7282159,23.7594388 19.9135363,24.5751432 18.9079962,24.5751432 M18.9079962,16.208025 C17.9011752,16.208025 17.0864956,15.3923207 17.0864956,14.3865244 C17.0864956,13.3807281 17.9011752,12.56528 18.9079962,12.56528 C19.9135363,12.56528 20.7282159,13.3807281 20.7282159,14.3865244 C20.7282159,15.3923207 19.9135363,16.208025 18.9079962,16.208025 M18.9079962,7.84065068 C17.9011752,7.84065068 17.0864956,7.02520251 17.0864956,6.0183815 C17.0864956,5.01258524 17.9011752,4.19713707 18.9079962,4.19713707 C19.9135363,4.19713707 20.7282159,5.01258524 20.7282159,6.0183815 C20.7282159,7.02520251 19.9135363,7.84065068 18.9079962,7.84065068 M23.1158932,45.4944757 C22.1093283,45.4944757 21.2946487,44.6787713 21.2946487,43.6732313 C21.2946487,42.667435 22.1093283,41.8517306 23.1158932,41.8517306 C24.1216894,41.8517306 24.9373938,42.667435 24.9373938,43.6732313 C24.9373938,44.6787713 24.1216894,45.4944757 23.1158932,45.4944757 M23.1158932,37.1273575 C22.1093283,37.1273575 21.2946487,36.3116532 21.2946487,35.3058569 C21.2946487,34.2992921 22.1093283,33.4835877 23.1158932,33.4835877 C24.1216894,33.4835877 24.9373938,34.2992921 24.9373938,35.3058569 C24.9373938,36.3116532 24.1216894,37.1273575 23.1158932,37.1273575 M23.1158932,28.7602394 C22.1093283,28.7602394 21.2946487,27.9435103 21.2946487,26.937714 C21.2946487,25.9321739 22.1093283,25.1164696 23.1158932,25.1164696 C24.1216894,25.1164696 24.9373938,25.9321739 24.9373938,26.937714 C24.9373938,27.9435103 24.1216894,28.7602394 23.1158932,28.7602394 M23.1158932,20.3910717 C22.1093283,20.3910717 21.2946487,19.5753674 21.2946487,18.5695711 C21.2946487,17.564031 22.1093283,16.7483267 23.1158932,16.7483267 C24.1216894,16.7483267 24.9373938,17.564031 24.9373938,18.5695711 C24.9373938,19.5753674 24.1216894,20.3910717 23.1158932,20.3910717 M23.1158932,12.0239536 C22.1093283,12.0239536 21.2946487,11.2082492 21.2946487,10.2024529 C21.2946487,9.19665669 22.1093283,8.38120852 23.1158932,8.38120852 C24.1216894,8.38120852 24.9373938,9.19665669 24.9373938,10.2024529 C24.9373938,11.2082492 24.1216894,12.0239536 23.1158932,12.0239536 M23.1158932,3.65657922 C22.1093283,3.65657922 21.2946487,2.84113106 21.2946487,1.8353348 C21.2946487,0.829538536 22.1093283,0.0130656162 23.1158932,0.0130656162 C24.1216894,0.0130656162 24.9373938,0.829538536 24.9373938,1.8353348 C24.9373938,2.84113106 24.1216894,3.65657922 23.1158932,3.65657922 M27.3240463,41.3104042 C26.3174815,41.3104042 25.5017772,40.4946999 25.5017772,39.4891598 C25.5017772,38.4823388 26.3174815,37.6676592 27.3240463,37.6676592 C28.3298426,37.6676592 29.145547,38.4823388 29.145547,39.4891598 C29.145547,40.4946999 28.3298426,41.3104042 27.3240463,41.3104042 M27.3240463,32.9432861 C26.3174815,32.9432861 25.5017772,32.1275817 25.5017772,31.1217855 C25.5017772,30.1162454 26.3174815,29.2995163 27.3240463,29.2995163 C28.3298426,29.2995163 29.145547,30.1162454 29.145547,31.1217855 C29.145547,32.1275817 28.3298426,32.9432861 27.3240463,32.9432861 M27.3240463,24.5751432 C26.3174815,24.5751432 25.5017772,23.7594388 25.5017772,22.7536426 C25.5017772,21.7481025 26.3174815,20.9313734 27.3240463,20.9313734 C28.3298426,20.9313734 29.145547,21.7481025 29.145547,22.7536426 C29.145547,23.7594388 28.3298426,24.5751432 27.3240463,24.5751432 M27.3240463,16.208025 C26.3174815,16.208025 25.5017772,15.3923207 25.5017772,14.3865244 C25.5017772,13.3807281 26.3174815,12.56528 27.3240463,12.56528 C28.3298426,12.56528 29.145547,13.3807281 29.145547,14.3865244 C29.145547,15.3923207 28.3298426,16.208025 27.3240463,16.208025 M27.3240463,7.84065068 C26.3174815,7.84065068 25.5017772,7.02520251 25.5017772,6.0183815 C25.5017772,5.01258524 26.3174815,4.19713707 27.3240463,4.19713707 C28.3298426,4.19713707 29.145547,5.01258524 29.145547,6.0183815 C29.145547,7.02520251 28.3298426,7.84065068 27.3240463,7.84065068 M31.5321995,37.1273575 C30.5253785,37.1273575 29.7099303,36.3116532 29.7099303,35.3058569 C29.7099303,34.2992921 30.5253785,33.4835877 31.5321995,33.4835877 C32.5379958,33.4835877 33.353444,34.2992921 33.353444,35.3058569 C33.353444,36.3116532 32.5379958,37.1273575 31.5321995,37.1273575 M31.5321995,28.7602394 C30.5253785,28.7602394 29.7099303,27.9435103 29.7099303,26.937714 C29.7099303,25.9321739 30.5253785,25.1164696 31.5321995,25.1164696 C32.5379958,25.1164696 33.353444,25.9321739 33.353444,26.937714 C33.353444,27.9435103 32.5379958,28.7602394 31.5321995,28.7602394 M31.5321995,20.3910717 C30.5253785,20.3910717 29.7099303,19.5753674 29.7099303,18.5695711 C29.7099303,17.564031 30.5253785,16.7483267 31.5321995,16.7483267 C32.5379958,16.7483267 33.353444,17.564031 33.353444,18.5695711 C33.353444,19.5753674 32.5379958,20.3910717 31.5321995,20.3910717 M31.5321995,12.0239536 C30.5253785,12.0239536 29.7099303,11.2082492 29.7099303,10.2024529 C29.7099303,9.19665669 30.5253785,8.38120852 31.5321995,8.38120852 C32.5379958,8.38120852 33.353444,9.19665669 33.353444,10.2024529 C33.353444,11.2082492 32.5379958,12.0239536 31.5321995,12.0239536 M35.7403527,41.3104042 C34.7335317,41.3104042 33.9180835,40.4946999 33.9180835,39.4891598 C33.9180835,38.4823388 34.7335317,37.6676592 35.7403527,37.6676592 C36.746149,37.6676592 37.5615971,38.4823388 37.5615971,39.4891598 C37.5615971,40.4946999 36.746149,41.3104042 35.7403527,41.3104042 M35.7403527,32.9432861 C34.7335317,32.9432861 33.9180835,32.1275817 33.9180835,31.1217855 C33.9180835,30.1162454 34.7335317,29.2995163 35.7403527,29.2995163 C36.746149,29.2995163 37.5615971,30.1162454 37.5615971,31.1217855 C37.5615971,32.1275817 36.746149,32.9432861 35.7403527,32.9432861 M35.7403527,24.5751432 C34.7335317,24.5751432 33.9180835,23.7594388 33.9180835,22.7536426 C33.9180835,21.7481025 34.7335317,20.9313734 35.7403527,20.9313734 C36.746149,20.9313734 37.5615971,21.7481025 37.5615971,22.7536426 C37.5615971,23.7594388 36.746149,24.5751432 35.7403527,24.5751432 M35.7403527,16.208025 C34.7335317,16.208025 33.9180835,15.3923207 33.9180835,14.3865244 C33.9180835,13.3807281 34.7335317,12.56528 35.7403527,12.56528 C36.746149,12.56528 37.5615971,13.3807281 37.5615971,14.3865244 C37.5615971,15.3923207 36.746149,16.208025 35.7403527,16.208025 M35.7403527,7.84065068 C34.7335317,7.84065068 33.9180835,7.02520251 33.9180835,6.0183815 C33.9180835,5.01258524 34.7335317,4.19713707 35.7403527,4.19713707 C36.746149,4.19713707 37.5615971,5.01258524 37.5615971,6.0183815 C37.5615971,7.02520251 36.746149,7.84065068 35.7403527,7.84065068 M39.9485059,37.1273575 C38.9416849,37.1273575 38.1259805,36.3116532 38.1259805,35.3058569 C38.1259805,34.2992921 38.9416849,33.4835877 39.9485059,33.4835877 C40.954046,33.4835877 41.7697503,34.2992921 41.7697503,35.3058569 C41.7697503,36.3116532 40.954046,37.1273575 39.9485059,37.1273575 M39.9485059,28.7602394 C38.9416849,28.7602394 38.1259805,27.9435103 38.1259805,26.937714 C38.1259805,25.9321739 38.9416849,25.1164696 39.9485059,25.1164696 C40.954046,25.1164696 41.7697503,25.9321739 41.7697503,26.937714 C41.7697503,27.9435103 40.954046,28.7602394 39.9485059,28.7602394 M39.9485059,20.3910717 C38.9416849,20.3910717 38.1259805,19.5753674 38.1259805,18.5695711 C38.1259805,17.564031 38.9416849,16.7483267 39.9485059,16.7483267 C40.954046,16.7483267 41.7697503,17.564031 41.7697503,18.5695711 C41.7697503,19.5753674 40.954046,20.3910717 39.9485059,20.3910717 M39.9485059,12.0239536 C38.9416849,12.0239536 38.1259805,11.2082492 38.1259805,10.2024529 C38.1259805,9.19665669 38.9416849,8.38120852 39.9485059,8.38120852 C40.954046,8.38120852 41.7697503,9.19665669 41.7697503,10.2024529 C41.7697503,11.2082492 40.954046,12.0239536 39.9485059,12.0239536" id="Fill-17"></path>
                    <path d="M23.1158932,16.7483267 C22.1093283,16.7483267 21.2946487,17.564031 21.2946487,18.5695711 C21.2946487,19.5753674 22.1093283,20.3910717 23.1158932,20.3910717 C24.1216894,20.3910717 24.936369,19.5753674 24.936369,18.5695711 C24.936369,17.564031 24.1216894,16.7483267 23.1158932,16.7483267" id="Fill-19"></path>
                    <path d="M14.699843,16.7483267 C13.693022,16.7483267 12.8785986,17.564031 12.8785986,18.5695711 C12.8785986,19.5753674 13.693022,20.3910717 14.699843,20.3910717 C15.7056393,20.3910717 16.5200627,19.5753674 16.5200627,18.5695711 C16.5200627,17.564031 15.7056393,16.7483267 14.699843,16.7483267" id="Fill-21"></path>
                    <path d="M6.28353665,16.7483267 C5.27697182,16.7483267 4.46126747,17.564031 4.46126747,18.5695711 C4.46126747,19.5753674 5.27697182,20.3910717 6.28353665,20.3910717 C7.28933291,20.3910717 8.10503726,19.5753674 8.10503726,18.5695711 C8.10503726,17.564031 7.28933291,16.7483267 6.28353665,16.7483267" id="Fill-23"></path>
                    <path d="M31.5321995,16.7483267 C30.5253785,16.7483267 29.7099303,17.564031 29.7099303,18.5695711 C29.7099303,19.5753674 30.5253785,20.3910717 31.5321995,20.3910717 C32.5379958,20.3910717 33.353444,19.5753674 33.353444,18.5695711 C33.353444,17.564031 32.5379958,16.7483267 31.5321995,16.7483267" id="Fill-25"></path>
                    <path d="M39.9485059,16.7483267 C38.9416849,16.7483267 38.1259805,17.564031 38.1259805,18.5695711 C38.1259805,19.5753674 38.9416849,20.3910717 39.9485059,20.3910717 C40.954046,20.3910717 41.7697503,19.5753674 41.7697503,18.5695711 C41.7697503,17.564031 40.954046,16.7483267 39.9485059,16.7483267" id="Fill-27"></path>
                    <path d="M23.1158932,8.38120852 C22.1093283,8.38120852 21.2946487,9.19665669 21.2946487,10.2024529 C21.2946487,11.2082492 22.1093283,12.0239536 23.1158932,12.0239536 C24.1216894,12.0239536 24.936369,11.2082492 24.936369,10.2024529 C24.936369,9.19665669 24.1216894,8.38120852 23.1158932,8.38120852" id="Fill-29"></path>
                    <path d="M14.699843,8.38120852 C13.693022,8.38120852 12.8785986,9.19665669 12.8785986,10.2024529 C12.8785986,11.2082492 13.693022,12.0239536 14.699843,12.0239536 C15.7056393,12.0239536 16.5200627,11.2082492 16.5200627,10.2024529 C16.5200627,9.19665669 15.7056393,8.38120852 14.699843,8.38120852" id="Fill-31"></path>
                    <path d="M6.28353665,8.38120852 C5.27697182,8.38120852 4.46126747,9.19665669 4.46126747,10.2024529 C4.46126747,11.2082492 5.27697182,12.0239536 6.28353665,12.0239536 C7.28933291,12.0239536 8.10503726,11.2082492 8.10503726,10.2024529 C8.10503726,9.19665669 7.28933291,8.38120852 6.28353665,8.38120852" id="Fill-33"></path>
                    <path d="M31.5321995,8.38120852 C30.5253785,8.38120852 29.7099303,9.19665669 29.7099303,10.2024529 C29.7099303,11.2082492 30.5253785,12.0239536 31.5321995,12.0239536 C32.5379958,12.0239536 33.353444,11.2082492 33.353444,10.2024529 C33.353444,9.19665669 32.5379958,8.38120852 31.5321995,8.38120852" id="Fill-35"></path>
                    <path d="M39.9485059,8.38120852 C38.9416849,8.38120852 38.1259805,9.19665669 38.1259805,10.2024529 C38.1259805,11.2082492 38.9416849,12.0239536 39.9485059,12.0239536 C40.954046,12.0239536 41.7697503,11.2082492 41.7697503,10.2024529 C41.7697503,9.19665669 40.954046,8.38120852 39.9485059,8.38120852" id="Fill-37"></path>
                    <path d="M23.1158932,0.0130656162 C22.1093283,0.0130656162 21.2946487,0.829538536 21.2946487,1.8353348 C21.2946487,2.84113106 22.1093283,3.65657922 23.1158932,3.65657922 C24.1216894,3.65657922 24.936369,2.84113106 24.936369,1.8353348 C24.936369,0.829538536 24.1216894,0.0130656162 23.1158932,0.0130656162" id="Fill-39"></path>
                    <path d="M14.699843,3.65657922 C15.7056393,3.65657922 16.5200627,2.84113106 16.5200627,1.8353348 C16.5200627,1.50203349 16.4250167,1.19383866 16.2679731,0.924584489 C15.1140999,1.28606654 14.0032663,1.73926409 12.9364972,2.27059915 C13.1327376,3.06529604 13.8441732,3.65657922 14.699843,3.65657922" id="Fill-41"></path>
                    <path d="M31.5321995,3.65657922 C32.3868445,3.65657922 33.0982802,3.06529604 33.2945206,2.2716239 C32.2277514,1.73926409 31.1158931,1.28606654 29.9630446,0.924584489 C29.8070258,1.19383866 29.7099303,1.50203349 29.7099303,1.8353348 C29.7099303,2.84113106 30.5253785,3.65657922 31.5321995,3.65657922" id="Fill-43"></path>
                    <path d="M23.1158932,41.8517306 C22.1093283,41.8517306 21.2946487,42.667435 21.2946487,43.6732313 C21.2946487,44.6787713 22.1093283,45.4944757 23.1158932,45.4944757 C24.1216894,45.4944757 24.936369,44.6787713 24.936369,43.6732313 C24.936369,42.667435 24.1216894,41.8517306 23.1158932,41.8517306" id="Fill-45"></path>
                    <path d="M14.699843,41.8517306 C13.8441732,41.8517306 13.1327376,42.44327 12.9364972,43.2377107 C14.0032663,43.769302 15.1140999,44.2224995 16.2679731,44.5837254 C16.4250167,44.3147274 16.5200627,44.0062764 16.5200627,43.6732313 C16.5200627,42.667435 15.7056393,41.8517306 14.699843,41.8517306" id="Fill-47"></path>
                    <path d="M31.5321995,41.8517306 C30.5253785,41.8517306 29.7099303,42.667435 29.7099303,43.6732313 C29.7099303,44.0062764 29.8070258,44.3147274 29.9630446,44.5837254 C31.1158931,44.2214748 32.2277514,43.7682772 33.2945206,43.2369422 C33.0982802,42.44327 32.3868445,41.8517306 31.5321995,41.8517306" id="Fill-49"></path>
                    <path d="M27.3240463,37.6666344 C26.3182501,37.6666344 25.5017772,38.4833635 25.5017772,39.4891598 C25.5017772,40.4946999 26.3182501,41.3104042 27.3240463,41.3104042 C28.3298426,41.3104042 29.145547,40.4946999 29.145547,39.4891598 C29.145547,38.4833635 28.3298426,37.6666344 27.3240463,37.6666344" id="Fill-51"></path>
                    <path d="M18.9079962,37.6666344 C17.9011752,37.6666344 17.0864956,38.4833635 17.0864956,39.4891598 C17.0864956,40.4946999 17.9011752,41.3104042 18.9079962,41.3104042 C19.9135363,41.3104042 20.7282159,40.4946999 20.7282159,39.4891598 C20.7282159,38.4833635 19.9135363,37.6666344 18.9079962,37.6666344" id="Fill-53"></path>
                    <path d="M10.4916898,37.6666344 C9.48589357,37.6666344 8.66942065,38.4833635 8.66942065,39.4891598 C8.66942065,40.4946999 9.48589357,41.3104042 10.4916898,41.3104042 C11.4974861,41.3104042 12.3129343,40.4946999 12.3129343,39.4891598 C12.3129343,38.4833635 11.4974861,37.6666344 10.4916898,37.6666344" id="Fill-55"></path>
                    <path d="M35.7403527,37.6666344 C34.7335317,37.6666344 33.9180835,38.4833635 33.9180835,39.4891598 C33.9180835,40.4946999 34.7335317,41.3104042 35.7403527,41.3104042 C36.746149,41.3104042 37.5615971,40.4946999 37.5615971,39.4891598 C37.5615971,38.4833635 36.746149,37.6666344 35.7403527,37.6666344" id="Fill-57"></path>
                    <path d="M23.1158932,33.4835877 C22.1093283,33.4835877 21.2946487,34.3003168 21.2946487,35.3058569 C21.2946487,36.3116532 22.1093283,37.1273575 23.1158932,37.1273575 C24.1216894,37.1273575 24.936369,36.3116532 24.936369,35.3058569 C24.936369,34.3003168 24.1216894,33.4835877 23.1158932,33.4835877" id="Fill-59"></path>
                    <path d="M14.699843,33.4835877 C13.693022,33.4835877 12.8785986,34.3003168 12.8785986,35.3058569 C12.8785986,36.3116532 13.693022,37.1273575 14.699843,37.1273575 C15.7056393,37.1273575 16.5200627,36.3116532 16.5200627,35.3058569 C16.5200627,34.3003168 15.7056393,33.4835877 14.699843,33.4835877" id="Fill-61"></path>
                    <path d="M6.28353665,33.4835877 C5.27697182,33.4835877 4.46126747,34.3003168 4.46126747,35.3058569 C4.46126747,36.3116532 5.27697182,37.1273575 6.28353665,37.1273575 C7.28933291,37.1273575 8.10503726,36.3116532 8.10503726,35.3058569 C8.10503726,34.3003168 7.28933291,33.4835877 6.28353665,33.4835877" id="Fill-63"></path>
                    <path d="M31.5321995,33.4835877 C30.5253785,33.4835877 29.7099303,34.3003168 29.7099303,35.3058569 C29.7099303,36.3116532 30.5253785,37.1273575 31.5321995,37.1273575 C32.5379958,37.1273575 33.353444,36.3116532 33.353444,35.3058569 C33.353444,34.3003168 32.5379958,33.4835877 31.5321995,33.4835877" id="Fill-65"></path>
                    <path d="M39.9485059,33.4835877 C38.9416849,33.4835877 38.1259805,34.3003168 38.1259805,35.3058569 C38.1259805,36.3116532 38.9416849,37.1273575 39.9485059,37.1273575 C40.954046,37.1273575 41.7697503,36.3116532 41.7697503,35.3058569 C41.7697503,34.3003168 40.954046,33.4835877 39.9485059,33.4835877" id="Fill-67"></path>
                    <path d="M27.3240463,29.2995163 C26.3182501,29.2995163 25.5017772,30.1162454 25.5017772,31.1217855 C25.5017772,32.1275817 26.3182501,32.9432861 27.3240463,32.9432861 C28.3298426,32.9432861 29.145547,32.1275817 29.145547,31.1217855 C29.145547,30.1162454 28.3298426,29.2995163 27.3240463,29.2995163" id="Fill-69"></path>
                    <path d="M18.9079962,29.2995163 C17.9011752,29.2995163 17.0864956,30.1162454 17.0864956,31.1217855 C17.0864956,32.1275817 17.9011752,32.9432861 18.9079962,32.9432861 C19.9135363,32.9432861 20.7282159,32.1275817 20.7282159,31.1217855 C20.7282159,30.1162454 19.9135363,29.2995163 18.9079962,29.2995163" id="Fill-71"></path>
                    <path d="M10.4916898,29.2995163 C9.48589357,29.2995163 8.66942065,30.1162454 8.66942065,31.1217855 C8.66942065,32.1275817 9.48589357,32.9432861 10.4916898,32.9432861 C11.4974861,32.9432861 12.3129343,32.1275817 12.3129343,31.1217855 C12.3129343,30.1162454 11.4974861,29.2995163 10.4916898,29.2995163" id="Fill-73"></path>
                    <path d="M35.7403527,29.2995163 C34.7335317,29.2995163 33.9180835,30.1162454 33.9180835,31.1217855 C33.9180835,32.1275817 34.7335317,32.9432861 35.7403527,32.9432861 C36.746149,32.9432861 37.5615971,32.1275817 37.5615971,31.1217855 C37.5615971,30.1162454 36.746149,29.2995163 35.7403527,29.2995163" id="Fill-75"></path>
                    <path d="M42.3341337,31.1217855 C42.3341337,31.9454317 42.8854515,32.6340665 43.6360839,32.8592562 C44.167419,31.7842891 44.6177985,30.6644889 44.9762062,29.5026738 C44.7279595,29.3776538 44.452813,29.2995163 44.1564029,29.2995163 C43.149838,29.2995163 42.3341337,30.1162454 42.3341337,31.1217855" id="Fill-77"></path>
                    <path d="M27.3240463,20.9313734 C26.3182501,20.9313734 25.5017772,21.7481025 25.5017772,22.7536426 C25.5017772,23.7594388 26.3182501,24.5751432 27.3240463,24.5751432 C28.3298426,24.5751432 29.145547,23.7594388 29.145547,22.7536426 C29.145547,21.7481025 28.3298426,20.9313734 27.3240463,20.9313734" id="Fill-79"></path>
                    <path d="M18.9079962,20.9313734 C17.9011752,20.9313734 17.0864956,21.7481025 17.0864956,22.7536426 C17.0864956,23.7594388 17.9011752,24.5751432 18.9079962,24.5751432 C19.9135363,24.5751432 20.7282159,23.7594388 20.7282159,22.7536426 C20.7282159,21.7481025 19.9135363,20.9313734 18.9079962,20.9313734" id="Fill-81"></path>
                    <path d="M10.4916898,20.9313734 C9.48589357,20.9313734 8.66942065,21.7481025 8.66942065,22.7536426 C8.66942065,23.7594388 9.48589357,24.5751432 10.4916898,24.5751432 C11.4974861,24.5751432 12.3129343,23.7594388 12.3129343,22.7536426 C12.3129343,21.7481025 11.4974861,20.9313734 10.4916898,20.9313734" id="Fill-83"></path>
                    <path d="M3.89688409,31.1217855 C3.89688409,30.1162454 3.08117973,29.2995163 2.07563966,29.2995163 C1.7792295,29.2995163 1.50305824,29.3776538 1.25481153,29.5036986 C1.61321932,30.6644889 2.06462355,31.7853138 2.5939091,32.8592562 C3.34556632,32.6350912 3.89688409,31.9454317 3.89688409,31.1217855" id="Fill-85"></path>
                    <path d="M2.07563966,20.9313734 C1.06881864,20.9313734 0.253114291,21.7481025 0.253114291,22.7536426 C0.253114291,23.7594388 1.06881864,24.5751432 2.07563966,24.5751432 C3.08117973,24.5751432 3.89688409,23.7594388 3.89688409,22.7536426 C3.89688409,21.7481025 3.08117973,20.9313734 2.07563966,20.9313734" id="Fill-87"></path>
                    <path d="M3.89688409,14.3865244 C3.89688409,13.5621096 3.34633488,12.8734748 2.5939091,12.6482851 C2.06462355,13.722996 1.61321932,14.8430524 1.25481153,16.0048675 C1.50305824,16.1309123 1.7792295,16.208025 2.07563966,16.208025 C3.08117973,16.208025 3.89688409,15.3923207 3.89688409,14.3865244" id="Fill-89"></path>
                    <path d="M35.7403527,20.9313734 C34.7335317,20.9313734 33.9180835,21.7481025 33.9180835,22.7536426 C33.9180835,23.7594388 34.7335317,24.5751432 35.7403527,24.5751432 C36.746149,24.5751432 37.5615971,23.7594388 37.5615971,22.7536426 C37.5615971,21.7481025 36.746149,20.9313734 35.7403527,20.9313734" id="Fill-91"></path>
                    <path d="M44.1564029,24.5761679 C45.1621991,24.5761679 45.9768787,23.7594388 45.9768787,22.7536426 C45.9768787,21.7481025 45.1621991,20.9323981 44.1564029,20.9323981 C43.149838,20.9323981 42.3341337,21.7481025 42.3341337,22.7536426 C42.3341337,23.7594388 43.149838,24.5761679 44.1564029,24.5761679" id="Fill-93"></path>
                    <path d="M27.3240463,4.19713707 C26.3182501,4.19713707 25.5017772,5.01258524 25.5017772,6.0183815 C25.5017772,7.02520251 26.3182501,7.84065068 27.3240463,7.84065068 C28.3298426,7.84065068 29.145547,7.02520251 29.145547,6.0183815 C29.145547,5.01258524 28.3298426,4.19713707 27.3240463,4.19713707" id="Fill-95"></path>
                    <path d="M18.9079962,4.19713707 C17.9011752,4.19713707 17.0864956,5.01258524 17.0864956,6.0183815 C17.0864956,7.02520251 17.9011752,7.84065068 18.9079962,7.84065068 C19.9135363,7.84065068 20.7282159,7.02520251 20.7282159,6.0183815 C20.7282159,5.01258524 19.9135363,4.19713707 18.9079962,4.19713707" id="Fill-97"></path>
                    <path d="M10.4916898,4.19713707 C9.48589357,4.19713707 8.66942065,5.01258524 8.66942065,6.0183815 C8.66942065,7.02520251 9.48589357,7.84065068 10.4916898,7.84065068 C11.4974861,7.84065068 12.3129343,7.02520251 12.3129343,6.0183815 C12.3129343,5.01258524 11.4974861,4.19713707 10.4916898,4.19713707" id="Fill-99"></path>
                    <path d="M35.7403527,4.19713707 C34.7335317,4.19713707 33.9180835,5.01258524 33.9180835,6.0183815 C33.9180835,7.02520251 34.7335317,7.84065068 35.7403527,7.84065068 C36.746149,7.84065068 37.5615971,7.02520251 37.5615971,6.0183815 C37.5615971,5.01258524 36.746149,4.19713707 35.7403527,4.19713707" id="Fill-101"></path>
                    <path d="M23.1158932,25.1164696 C22.1093283,25.1164696 21.2946487,25.9321739 21.2946487,26.937714 C21.2946487,27.9435103 22.1093283,28.7602394 23.1158932,28.7602394 C24.1216894,28.7602394 24.936369,27.9435103 24.936369,26.937714 C24.936369,25.9321739 24.1216894,25.1164696 23.1158932,25.1164696" id="Fill-103"></path>
                    <path d="M14.699843,25.1164696 C13.693022,25.1164696 12.8785986,25.9321739 12.8785986,26.937714 C12.8785986,27.9435103 13.693022,28.7602394 14.699843,28.7602394 C15.7056393,28.7602394 16.5200627,27.9435103 16.5200627,26.937714 C16.5200627,25.9321739 15.7056393,25.1164696 14.699843,25.1164696" id="Fill-105"></path>
                    <path d="M6.28353665,25.1164696 C5.27697182,25.1164696 4.46126747,25.9321739 4.46126747,26.937714 C4.46126747,27.9435103 5.27697182,28.7602394 6.28353665,28.7602394 C7.28933291,28.7602394 8.10503726,27.9435103 8.10503726,26.937714 C8.10503726,25.9321739 7.28933291,25.1164696 6.28353665,25.1164696" id="Fill-107"></path>
                    <path d="M31.5321995,25.1164696 C30.5253785,25.1164696 29.7099303,25.9321739 29.7099303,26.937714 C29.7099303,27.9435103 30.5253785,28.7602394 31.5321995,28.7602394 C32.5379958,28.7602394 33.353444,27.9435103 33.353444,26.937714 C33.353444,25.9321739 32.5379958,25.1164696 31.5321995,25.1164696" id="Fill-109"></path>
                    <path d="M39.9485059,25.1164696 C38.9416849,25.1164696 38.1259805,25.9321739 38.1259805,26.937714 C38.1259805,27.9435103 38.9416849,28.7602394 39.9485059,28.7602394 C40.954046,28.7602394 41.7697503,27.9435103 41.7697503,26.937714 C41.7697503,25.9321739 40.954046,25.1164696 39.9485059,25.1164696" id="Fill-111"></path>
                    <path d="M27.3240463,12.56528 C26.3182501,12.56528 25.5017772,13.3807281 25.5017772,14.3865244 C25.5017772,15.3923207 26.3182501,16.208025 27.3240463,16.208025 C28.3298426,16.208025 29.145547,15.3923207 29.145547,14.3865244 C29.145547,13.3807281 28.3298426,12.56528 27.3240463,12.56528" id="Fill-113"></path>
                    <path d="M18.9079962,12.56528 C17.9011752,12.56528 17.0864956,13.3807281 17.0864956,14.3865244 C17.0864956,15.3923207 17.9011752,16.208025 18.9079962,16.208025 C19.9135363,16.208025 20.7282159,15.3923207 20.7282159,14.3865244 C20.7282159,13.3807281 19.9135363,12.56528 18.9079962,12.56528" id="Fill-115"></path>
                    <path d="M10.4916898,12.56528 C9.48589357,12.56528 8.66942065,13.3807281 8.66942065,14.3865244 C8.66942065,15.3923207 9.48589357,16.208025 10.4916898,16.208025 C11.4974861,16.208025 12.3129343,15.3923207 12.3129343,14.3865244 C12.3129343,13.3807281 11.4974861,12.56528 10.4916898,12.56528" id="Fill-117"></path>
                    <path d="M35.7403527,12.56528 C34.7335317,12.56528 33.9180835,13.3807281 33.9180835,14.3865244 C33.9180835,15.3923207 34.7335317,16.208025 35.7403527,16.208025 C36.746149,16.208025 37.5615971,15.3923207 37.5615971,14.3865244 C37.5615971,13.3807281 36.746149,12.56528 35.7403527,12.56528" id="Fill-119"></path>
                    <path d="M42.3341337,14.3865244 C42.3341337,15.3923207 43.149838,16.208025 44.1564029,16.208025 C44.452813,16.208025 44.7279595,16.1309123 44.9762062,16.0048675 C44.6177985,14.843821 44.167419,13.722996 43.6360839,12.6482851 C42.8854515,12.8734748 42.3341337,13.5621096 42.3341337,14.3865244" id="Fill-121"></path>
                </g>
            </g>
        </g>
    </g>
</svg>