<?xml version="1.0" encoding="UTF-8"?>
<svg width="118px" height="31px" viewBox="0 0 118 31" version="1.1" xmlns="http://www.w3.org/2000/svg" xmlns:xlink="http://www.w3.org/1999/xlink">
    <!-- Generator: Sketch 41.2 (35397) - http://www.bohemiancoding.com/sketch -->
    <title>menu</title>
    <desc>Created with Sketch.</desc>
    <defs></defs>
    <g id="Page-1" stroke="none" stroke-width="1" fill="none" fill-rule="evenodd">
        <g id="menu" fill="#FFFFFF">
            <path d="M17.9553,19.2932629 L9.0321,0.24566287 L3.8412,0.24566287 L0.1947,29.8037629 L6.501,29.8037629 L8.6031,12.0860629 L15.5529,26.4146629 L20.4006,26.4146629 L27.3075,12.0860629 L29.3667,29.8037629 L35.673,29.8037629 L32.0694,0.24566287 L26.7927,0.24566287 L17.9553,19.2932629 Z M40.9926,29.8037629 L60.0831,29.8037629 L60.0831,24.2696629 L47.256,24.2696629 L47.256,17.9633629 L58.1526,17.9633629 L58.1526,12.5150629 L47.256,12.5150629 L47.256,5.77976287 L59.697,5.77976287 L59.697,0.24566287 L40.9926,0.24566287 L40.9926,29.8037629 Z M87.8823,0.24566287 L81.576,0.24566287 L81.576,17.9204629 L71.4516,0.24566287 L65.703,0.24566287 L65.703,29.8037629 L71.9664,29.8037629 L71.9664,11.9144629 L82.2624,29.8037629 L87.8823,29.8037629 L87.8823,0.24566287 Z M106.029,24.3125629 C103.3692,24.3125629 100.9239,22.2962629 100.9239,19.2503629 L100.9239,0.24566287 L94.5318,0.24566287 L94.5318,19.2503629 C94.5318,25.9427629 99.9372,30.2327629 106.029,30.2327629 C112.0779,30.2327629 117.4404,25.9427629 117.4404,19.2503629 L117.4404,0.24566287 L111.1341,0.24566287 L111.1341,19.2503629 C111.1341,22.2962629 108.6459,24.3125629 106.029,24.3125629 Z"></path>
        </g>
    </g>
</svg>