<?xml version="1.0" encoding="UTF-8"?>
<svg width="33px" height="33px" viewBox="0 0 33 33" version="1.1" xmlns="http://www.w3.org/2000/svg" xmlns:xlink="http://www.w3.org/1999/xlink">
    <!-- Generator: Sketch 41.2 (35397) - http://www.bohemiancoding.com/sketch -->
    <title>search</title>
    <desc>Created with Sketch.</desc>
    <defs></defs>
    <g id="Symbols" stroke="none" stroke-width="1" fill="none" fill-rule="evenodd">
        <g id="search-bar" transform="translate(-1219.000000, -195.000000)" fill="#FFFFFF">
            <g id="search">
                <path d="M1251.16521,223.586848 L1244.38427,216.806191 C1246.01842,214.447208 1246.8359,211.817414 1246.8359,208.918194 C1246.8359,207.033528 1246.47002,205.231054 1245.73826,203.511187 C1245.00698,201.791043 1244.01839,200.308404 1242.77291,199.062924 C1241.52743,197.817443 1240.045,196.828856 1238.3252,196.097507 C1236.60485,195.365951 1234.80251,195.000208 1232.91785,195.000208 C1231.03332,195.000208 1229.23085,195.365951 1227.51098,196.097507 C1225.79084,196.828856 1224.3082,197.817443 1223.06272,199.062924 C1221.8171,200.308404 1220.82865,201.79132 1220.09723,203.511187 C1219.36574,205.231262 1219,207.033528 1219,208.918194 C1219,210.802722 1219.36574,212.604573 1220.09723,214.324924 C1220.82858,216.044791 1221.8171,217.527222 1223.06272,218.772702 C1224.3082,220.018598 1225.79111,221.006771 1227.51098,221.738534 C1229.23105,222.469952 1231.03332,222.835626 1232.91785,222.835626 C1235.81769,222.835626 1238.44707,222.01807 1240.80619,220.384065 L1247.58712,227.145057 C1248.06158,227.645756 1248.65389,227.896278 1249.36619,227.896278 C1250.0515,227.896278 1250.64491,227.645825 1251.14533,227.145057 C1251.64596,226.644427 1251.89649,226.051288 1251.89649,225.365987 C1251.89669,224.667875 1251.65289,224.074529 1251.16521,223.586848 L1251.16521,223.586848 Z M1239.17496,215.174609 C1237.44186,216.907979 1235.35632,217.774628 1232.91785,217.774628 C1230.47979,217.774628 1228.39425,216.907771 1226.66102,215.174609 C1224.92779,213.441517 1224.06121,211.356253 1224.06121,208.917779 C1224.06121,206.47972 1224.92799,204.393832 1226.66102,202.660948 C1228.3939,200.927648 1230.47979,200.061136 1232.91785,200.061136 C1235.35605,200.061136 1237.44159,200.927994 1239.17496,202.660948 C1240.90832,204.393832 1241.77491,206.47972 1241.77491,208.917779 C1241.77491,211.356253 1240.90805,213.441517 1239.17496,215.174609 L1239.17496,215.174609 Z"></path>
            </g>
        </g>
    </g>
</svg>