<?xml version="1.0" encoding="UTF-8"?>
<svg width="20px" height="17px" viewBox="0 0 20 17" version="1.1" xmlns="http://www.w3.org/2000/svg" xmlns:xlink="http://www.w3.org/1999/xlink">
    <!-- Generator: Sketch 41.2 (35397) - http://www.bohemiancoding.com/sketch -->
    <title>twitter</title>
    <desc>Created with Sketch.</desc>
    <defs></defs>
    <g id="Symbols" stroke="none" stroke-width="1" fill="none" fill-rule="evenodd">
        <g id="footer" transform="translate(-475.000000, -168.000000)" fill="#FFFFFF">
            <g id="connect" transform="translate(474.000000, 84.000000)">
                <path d="M20.6840398,86.4504804 C19.9595234,86.7717877 19.1814558,86.9891426 18.3640122,87.0864011 C19.1979936,86.5863272 19.8386394,85.7948718 20.1402587,84.8518192 C19.3598286,85.3148797 18.495134,85.650756 17.5749194,85.8318851 C16.8381964,85.0467299 15.7884351,84.5565 14.6268463,84.5565 C12.396202,84.5565 10.5876673,86.3650347 10.5876673,88.595679 C10.5876673,88.9122612 10.6231056,89.2205744 10.6924072,89.5162874 C7.33561238,89.3477586 4.3591887,87.7396471 2.36676855,85.2959793 C2.01907943,85.892524 1.81983741,86.5863272 1.81983741,87.3269878 C1.81983741,88.7283758 2.53293482,89.9647788 3.61655937,90.6889014 C2.95465062,90.6680322 2.33172401,90.4861156 1.78715542,90.1837087 C1.78676166,90.2006404 1.78676166,90.2171782 1.78676166,90.2345036 C1.78676166,92.1914855 3.17909321,93.82401 5.02700383,94.1953246 C4.68797739,94.2874642 4.33083805,94.3370778 3.96267346,94.3370778 C3.70239881,94.3370778 3.44921183,94.3114835 3.20271874,94.2642324 C3.71657414,95.8688 5.20852669,97.036689 6.97611048,97.069371 C5.59362291,98.1526018 3.8520272,98.7983664 1.95962183,98.7983664 C1.63358944,98.7983664 1.3118884,98.779466 0.99609375,98.7420589 C2.78375925,99.8878974 4.90690735,100.5565 7.18795278,100.5565 C14.6173961,100.5565 18.6805944,94.4016543 18.6805944,89.0638584 C18.6805944,88.8886356 18.6762631,88.7145942 18.6687816,88.5413403 C19.4578745,87.9719649 20.1426213,87.2604425 20.6840398,86.4504804" id="twitter"></path>
            </g>
        </g>
    </g>
</svg>