<?xml version="1.0" encoding="UTF-8"?>
<svg width="21px" height="17px" viewBox="0 0 21 17" version="1.1" xmlns="http://www.w3.org/2000/svg" xmlns:xlink="http://www.w3.org/1999/xlink">
    <!-- Generator: Sketch 41.2 (35397) - http://www.bohemiancoding.com/sketch -->
    <title>company</title>
    <desc>Created with Sketch.</desc>
    <defs>
        <polygon id="path-1" points="0.0738461538 15.9261538 19.6923077 15.9261538 19.6923077 0 0.0738461538 0"></polygon>
    </defs>
    <g id="Page-1" stroke="none" stroke-width="1" fill="none" fill-rule="evenodd">
        <g id="Article" transform="translate(-394.000000, -5158.000000)">
            <g id="bio-copy" transform="translate(392.755859, 4999.830344)">
                <g id="company" transform="translate(2.000000, 159.000000)">
                    <mask id="mask-2" fill="white">
                        <use xlink:href="#path-1"></use>
                    </mask>
                    <g id="Clip-2"></g>
                    <path d="M18.4615385,7.38461538 L16,7.38461538 L16,9.23076923 C16,9.56923077 15.7230769,9.84615385 15.3846154,9.84615385 L14.1538462,9.84615385 C13.8153846,9.84615385 13.5384615,9.56923077 13.5384615,9.23076923 L13.5384615,7.38461538 L6.15384615,7.38461538 L6.15384615,9.23076923 C6.15384615,9.56923077 5.87692308,9.84615385 5.53846154,9.84615385 L4.30769231,9.84615385 C3.96923077,9.84615385 3.69230769,9.56923077 3.69230769,9.23076923 L3.69230769,7.38461538 L1.23076923,7.38461538 L1.23076923,6.15384615 L18.4615385,6.15384615 L18.4615385,7.38461538 Z M7.38461538,1.23323077 C7.38584615,1.232 7.38584615,1.232 7.38707692,1.23076923 L12.3052308,1.23076923 C12.3064615,1.232 12.3064615,1.232 12.3076923,1.23323077 L12.3076923,2.46153846 L7.38461538,2.46153846 L7.38461538,1.23323077 Z M18.4615385,2.46153846 L13.5384615,2.46153846 L13.5384615,1.23076923 C13.5384615,0.553846154 12.9846154,0 12.3076923,0 L7.38461538,0 C6.70769231,0 6.15384615,0.553846154 6.15384615,1.23076923 L6.15384615,2.46153846 L1.23076923,2.46153846 C0.553846154,2.46153846 0,3.01538462 0,3.69230769 L0,14.7692308 C0,15.4461538 0.553846154,16 1.23076923,16 L18.4615385,16 C19.1384615,16 19.6923077,15.4461538 19.6923077,14.7692308 L19.6923077,3.69230769 C19.6923077,3.01538462 19.1384615,2.46153846 18.4615385,2.46153846 L18.4615385,2.46153846 Z" id="Fill-1" fill="#4D4D4D" mask="url(#mask-2)"></path>
                </g>
            </g>
        </g>
    </g>
</svg>