<?xml version="1.0" encoding="UTF-8"?>
<svg width="15px" height="15px" viewBox="0 0 15 15" version="1.1" xmlns="http://www.w3.org/2000/svg" xmlns:xlink="http://www.w3.org/1999/xlink">
    <!-- Generator: Sketch 41.2 (35397) - http://www.bohemiancoding.com/sketch -->
    <title>Group 3</title>
    <desc>Created with Sketch.</desc>
    <defs></defs>
    <g id="Page-1" stroke="none" stroke-width="1" fill="none" fill-rule="evenodd">
        <g id="Code-Landing" transform="translate(-1129.000000, -329.000000)">
            <g id="recently-added-repos" transform="translate(1126.000000, 201.000000)">
                <g id="Group" transform="translate(0.000000, 122.000000)">
                    <g id="Group-3" transform="translate(0.000000, 3.000000)">
                        <path d="M13.3564453,11.8769531 L7.43847656,11.8769531 C4.99731445,11.8769531 3,13.2084961 3,14.8359375 L3,17.7949219 L17.7949219,17.7949219 L17.7949219,14.8359375 C17.7949219,13.2084961 15.7976074,11.8769531 13.3564453,11.8769531 Z M5.95898438,7.43847656 C5.95898438,4.9884375 7.94742187,3 10.3974609,3 C12.8475,3 14.8359375,4.9884375 14.8359375,7.43847656 C14.8359375,9.88851562 12.8475,11.8769531 10.3974609,11.8769531 C7.94742187,11.8769531 5.95898438,9.88851562 5.95898438,7.43847656 Z" id="Fill-1" fill="#4D4D4D"></path>
                        <rect id="Rectangle-7" x="0" y="0.397460938" width="20" height="20"></rect>
                    </g>
                </g>
            </g>
        </g>
    </g>
</svg>