<?xml version="1.0" encoding="UTF-8"?>
<svg width="21px" height="17px" viewBox="0 0 21 17" version="1.1" xmlns="http://www.w3.org/2000/svg" xmlns:xlink="http://www.w3.org/1999/xlink">
    <!-- Generator: Sketch 41.2 (35397) - http://www.bohemiancoding.com/sketch -->
    <title>twitter</title>
    <desc>Created with Sketch.</desc>
    <defs></defs>
    <g id="Page-1" stroke="none" stroke-width="1" fill="none" fill-rule="evenodd">
        <g id="Article" transform="translate(-886.000000, -5158.000000)" fill="#4D4D4D">
            <g id="bio-copy" transform="translate(392.755859, 4999.830344)">
                <g id="Group" transform="translate(494.000000, 154.000000)">
                    <path d="M19.6879461,6.89398041 C18.9634296,7.21528769 18.185362,7.43264261 17.3679185,7.52990107 C18.2018999,7.02982724 18.8425457,6.23837181 19.144165,5.29531919 C18.3637348,5.75837968 17.4990402,6.09425604 16.5788256,6.27538515 C15.8421027,5.49022986 14.7923414,5 13.6307526,5 C11.4001083,5 9.59157356,6.80853472 9.59157356,9.03917901 C9.59157356,9.35576119 9.62701186,9.66407442 9.69631343,9.95978737 C6.33951863,9.79125855 3.36309495,8.18314712 1.3706748,5.73947925 C1.02298568,6.33602402 0.823743663,7.02982724 0.823743663,7.77048777 C0.823743663,9.17187577 1.53684107,10.4082788 2.62046562,11.1324014 C1.95855687,11.1115322 1.33563026,10.9296156 0.791061672,10.6272087 C0.790667914,10.6441404 0.790667914,10.6606782 0.790667914,10.6780036 C0.790667914,12.6349855 2.18299946,14.26751 4.03091008,14.6388246 C3.69188364,14.7309642 3.3347443,14.7805778 2.96657971,14.7805778 C2.70630506,14.7805778 2.45311808,14.7549835 2.20662499,14.7077324 C2.72048039,16.3123 4.21243294,17.480189 5.98001673,17.512871 C4.59752916,18.5961018 2.85593345,19.2418664 0.96352808,19.2418664 C0.637495693,19.2418664 0.315794655,19.222966 0,19.1855589 C1.7876655,20.3313974 3.9108136,21 6.19185903,21 C13.6213024,21 17.6845007,14.8451543 17.6845007,9.50735837 C17.6845007,9.33213565 17.6801693,9.15809421 17.6726879,8.98484028 C18.4617808,8.41546488 19.1465275,7.70394251 19.6879461,6.89398041" id="twitter"></path>
                </g>
            </g>
        </g>
    </g>
</svg>